<?xml version="1.0" encoding="UTF-8"?>
<!DOCTYPE svg PUBLIC "-//W3C//DTD SVG 1.1//EN" "http://www.w3.org/Graphics/SVG/1.1/DTD/svg11.dtd">
<!-- Creator: CorelDRAW 2021.5 -->
<svg xmlns="http://www.w3.org/2000/svg" xml:space="preserve" width="14.6067mm" height="2.4973mm" version="1.1" style="shape-rendering:geometricPrecision; text-rendering:geometricPrecision; image-rendering:optimizeQuality; fill-rule:evenodd; clip-rule:evenodd"
viewBox="0 0 476.74 81.51"
 xmlns:xlink="http://www.w3.org/1999/xlink"
 xmlns:xodm="http://www.corel.com/coreldraw/odm/2003">
 <defs>
  <style type="text/css">
   <![CDATA[
    .fil0 {fill:white}
   ]]>
  </style>
 </defs>
 <g id="Layer_x0020_1">
  <metadata id="CorelCorpID_0Corel-Layer"/>
  <path id="path1312-7" class="fil0" d="M-0 10.67l0 8 22.6 0 0 52.18c0,7.32 5.22,10.67 10.33,10.67 5.11,0 8.36,-1.7 8.36,-1.7 0,0 -3.12,-2.52 -3.13,-13.74 -0.01,-10.88 0,-45.19 0,-50.03 0,-4.84 -5.64,-13.55 -14.92,-13.55l-14.34 0c-4.7,0 -8.89,3.83 -8.89,8.19zm458.05 -10.67l0 70.84c0,7.32 5.22,10.67 10.33,10.67 5.11,0 8.36,-1.7 8.36,-1.7 0,0 -3.12,-2.52 -3.13,-13.74 -0.01,-10.88 0,-51.79 0,-56.63 0,-4.84 -3.08,-9.43 -8.78,-9.43l-6.78 0zm-33.45 22.7c-8.46,-0.02 -14.82,2.61 -20.28,7.86 -5.46,5.25 -8.54,12.44 -8.53,22.36 0.01,9.92 4.2,17.43 9.63,21.82 5.43,4.38 11.92,6.77 21.06,6.77 9.14,-0 16.2,-3.32 19.81,-5.57l0 -13.44c-2.5,2.12 -10.16,6.29 -17.83,6.29 -7.67,0 -15.59,-2.56 -17.54,-12.06l38.83 0c0.19,-1.49 0.53,-3.73 0.52,-6.09 -0.03,-7.67 -1.68,-12.76 -5.62,-18.22 -3.93,-5.45 -11.6,-9.68 -20.06,-9.7zm-0.73 11.68c3.58,0 6.06,1.13 7.97,3.14 1.92,2.01 3.22,5.01 3.43,8.23l-24.06 0c0.66,-2.82 1.42,-4.85 3.54,-7.32 2.12,-2.47 5.55,-4.05 9.13,-4.05l0 0zm-53.47 -11.68c-9.41,-0.02 -14.48,2.93 -17.34,5.44 -2.86,2.52 -5.47,5.71 -5.49,12.6 -0.02,6.9 5.03,12.59 14.98,15.65 9.96,3.06 14.09,4.12 14.06,7.48 -0.03,3.36 -2.52,5.5 -9.52,5.5 -7,0 -14.08,-3.11 -19.18,-7.71l0 14.12c3.81,2.85 11.18,5.72 19.97,5.73 8.8,0 14.1,-2.15 17.16,-4.58 3.06,-2.43 6.58,-6.28 6.55,-13.97 -0.03,-7.69 -5.18,-12.76 -13.04,-15.51 -7.86,-2.75 -15.21,-3.68 -15.82,-6.89 -0.61,-3.21 1.22,-5.39 7.01,-5.91 5.79,-0.53 15.19,2.46 18.38,5.62l0 -13.06c-2.97,-1.72 -8.32,-4.49 -17.73,-4.51zm-87.27 0c-6.2,0 -10.29,2.75 -12.14,4.88 -1.85,2.13 -1.54,2.72 -2.1,3.12 -1.06,-4.16 -3.88,-7.1 -8.73,-7.1l-6.78 0 0 56.97 15.56 0 0 -29.42c0,-9.23 4.25,-15.2 10.28,-15.18 6.03,0.02 9.37,3.09 9.37,10.22l0 34.37 15.56 0 0 -29.17c0,-8.3 3.36,-15.46 10.53,-15.42 7.17,0.04 9.45,4.74 9.45,10.89l0 33.7 15.44 0 0 -37.8c0,-6.44 -1.9,-11.21 -5.8,-14.8 -3.89,-3.59 -8.15,-5.28 -15.15,-5.28 -7,0 -11.95,2.9 -15.75,7.03 -0.66,0.72 -1.29,1.7 -1.87,2.51 -0.97,-2.07 -2.68,-4.33 -4.14,-5.55 -3.67,-3.05 -7.52,-3.99 -13.72,-3.99zm-52.77 29.34c0,9.51 -5.94,15.92 -14.13,15.92 -8.19,0 -14.36,-6.11 -14.36,-15.92 0,-9.8 5.98,-15.92 14.36,-15.92 8.38,0 14.13,6.41 14.13,15.92zm-14.13 -29.34c-17.57,-0.03 -29.87,12.53 -29.84,29.35 0.02,16.81 12.08,29.47 29.84,29.46 17.77,-0.01 29.57,-12.84 29.57,-29.46 0,-16.62 -12,-29.32 -29.57,-29.35zm-80.71 -22.7l0 80.57 15.56 0c0,-8.36 0,-16.74 0,-25.47 3.37,3.88 12.55,14.69 13.72,16.04 4.17,4.84 7.15,9.43 13.97,9.43l12.44 0c0,0 -15.05,-17.39 -16.43,-19 -3.73,-4.33 -6.59,-8.47 -12.04,-9.28l0 -0.56c4.7,-1.07 7.44,-5.02 10.83,-9.15 1.32,-1.61 15.4,-18.99 15.4,-18.99l-17.61 -0 -20.28 24.74c0,0 0,-33.62 0,-48.33l-15.56 0zm-25.76 0l0 70.84c0,7.32 5.22,10.67 10.33,10.67 5.11,0 8.36,-1.7 8.36,-1.7 0,0 -3.12,-2.52 -3.13,-13.74 -0.01,-10.88 0,-51.79 0,-56.63 0,-4.84 -3.09,-9.43 -8.78,-9.43l-6.77 0zm-33.45 22.7c-8.46,-0.02 -14.82,2.61 -20.28,7.86 -5.45,5.25 -8.54,12.44 -8.53,22.36 0.01,9.92 4.2,17.43 9.63,21.82 5.43,4.38 11.92,6.77 21.06,6.77 9.14,-0 16.2,-3.32 19.81,-5.57l0 -13.44c-2.51,2.12 -10.16,6.29 -17.83,6.29 -7.67,0 -15.59,-2.56 -17.54,-12.06l38.83 0c0.19,-1.49 0.53,-3.73 0.52,-6.09 -0.03,-7.67 -1.69,-12.76 -5.62,-18.22 -3.93,-5.45 -11.6,-9.68 -20.06,-9.7zm-0.73 11.68c3.57,0 6.06,1.13 7.97,3.14 1.91,2.01 3.22,5 3.43,8.23l-24.06 0c0.66,-2.82 1.42,-4.85 3.54,-7.32 2.12,-2.47 5.55,-4.05 9.13,-4.05zm-42.4 -31.9c-0.3,0 -0.54,0.24 -0.54,0.54 0,0.3 0.3,0.52 0.54,0.69 0.98,0.73 4.05,2.91 5.52,5.88 1.47,2.98 1.5,5.68 2.45,7.24 0.95,1.56 2.5,1.84 4.15,1.84l11.81 0c2.61,0 3.64,-1.75 3.64,-3.83l0 -12.35 -27.56 0z"/>
 </g>
</svg>
