<?xml version="1.0" encoding="UTF-8"?>
<!DOCTYPE svg PUBLIC "-//W3C//DTD SVG 1.1//EN" "http://www.w3.org/Graphics/SVG/1.1/DTD/svg11.dtd">
<!-- Creator: CorelDRAW 2021.5 -->
<svg xmlns="http://www.w3.org/2000/svg" xml:space="preserve" width="16.6525mm" height="4.467mm" version="1.1" style="shape-rendering:geometricPrecision; text-rendering:geometricPrecision; image-rendering:optimizeQuality; fill-rule:evenodd; clip-rule:evenodd"
viewBox="0 0 246.6 66.15"
 xmlns:xlink="http://www.w3.org/1999/xlink"
 xmlns:xodm="http://www.corel.com/coreldraw/odm/2003">
 <defs>
  <style type="text/css">
   <![CDATA[
    .fil1 {fill:white}
    .fil0 {fill:white;fill-rule:nonzero}
   ]]>
  </style>
 </defs>
 <g id="Layer_x0020_1">
  <metadata id="CorelCorpID_0Corel-Layer"/>
  <path class="fil0" d="M8.54 59.59c0,0.49 -0.08,0.94 -0.25,1.36 -0.16,0.41 -0.4,0.77 -0.73,1.07 -0.32,0.3 -0.72,0.54 -1.2,0.7 -0.48,0.17 -1.04,0.25 -1.67,0.25l-0.9 0 0 3.02 -1.78 0 0 -9.38 2.75 0c0.61,0 1.15,0.07 1.61,0.2 0.47,0.13 0.86,0.32 1.18,0.58 0.32,0.25 0.56,0.57 0.73,0.94 0.16,0.37 0.25,0.8 0.25,1.27zm-1.85 0.12c0,-0.25 -0.04,-0.47 -0.12,-0.67 -0.08,-0.2 -0.2,-0.38 -0.36,-0.52 -0.16,-0.14 -0.36,-0.25 -0.61,-0.33 -0.24,-0.08 -0.53,-0.12 -0.87,-0.12l-0.93 0 0 3.43 0.98 0c0.31,0 0.58,-0.04 0.81,-0.12 0.24,-0.08 0.43,-0.2 0.59,-0.36 0.16,-0.16 0.28,-0.35 0.37,-0.57 0.08,-0.22 0.13,-0.46 0.13,-0.74zm7.35 -1.64l0 7.91 -1.81 0 0 -7.91 -2.57 0 0 -1.47 6.96 0 0 1.47 -2.57 0zm8.13 5.27c0.2,0 0.39,0.04 0.56,0.11 0.17,0.08 0.32,0.17 0.45,0.3 0.13,0.13 0.23,0.28 0.3,0.45 0.07,0.17 0.11,0.36 0.11,0.55 0,0.19 -0.04,0.37 -0.11,0.54 -0.07,0.17 -0.17,0.32 -0.3,0.44 -0.12,0.13 -0.27,0.23 -0.45,0.3 -0.17,0.07 -0.36,0.11 -0.56,0.11 -0.19,0 -0.37,-0.04 -0.54,-0.11 -0.17,-0.08 -0.31,-0.17 -0.44,-0.3 -0.13,-0.13 -0.22,-0.28 -0.29,-0.44 -0.07,-0.17 -0.11,-0.35 -0.11,-0.54 0,-0.2 0.04,-0.38 0.11,-0.55 0.07,-0.17 0.17,-0.32 0.29,-0.45 0.12,-0.13 0.27,-0.23 0.44,-0.3 0.17,-0.07 0.35,-0.11 0.54,-0.11zm4.82 2.65l0 -9.38 3.03 0c1.07,0 1.87,0.19 2.4,0.56 0.53,0.37 0.8,0.94 0.8,1.7 0,0.23 -0.03,0.46 -0.08,0.68 -0.05,0.22 -0.14,0.43 -0.25,0.61 -0.12,0.19 -0.26,0.35 -0.43,0.5 -0.17,0.14 -0.38,0.25 -0.61,0.33 0.24,0.04 0.46,0.12 0.67,0.23 0.21,0.11 0.4,0.26 0.56,0.44 0.16,0.18 0.29,0.39 0.38,0.64 0.09,0.24 0.14,0.51 0.14,0.82 0,0.96 -0.32,1.68 -0.96,2.16 -0.64,0.48 -1.57,0.72 -2.78,0.72l-2.86 0zm4.4 -6.82c0,-0.18 -0.03,-0.34 -0.09,-0.48 -0.06,-0.14 -0.15,-0.27 -0.28,-0.37 -0.13,-0.1 -0.29,-0.18 -0.49,-0.23 -0.2,-0.06 -0.44,-0.08 -0.72,-0.08l-1.07 0 0 2.48 1.07 0c0.29,0 0.53,-0.03 0.73,-0.11 0.2,-0.07 0.36,-0.16 0.49,-0.29 0.13,-0.12 0.22,-0.26 0.27,-0.42 0.06,-0.16 0.08,-0.33 0.08,-0.51zm-1.41 5.38c0.28,0 0.53,-0.04 0.74,-0.11 0.21,-0.07 0.39,-0.17 0.54,-0.3 0.15,-0.13 0.25,-0.28 0.33,-0.45 0.07,-0.17 0.11,-0.36 0.11,-0.55 0,-0.41 -0.15,-0.73 -0.45,-0.95 -0.31,-0.23 -0.77,-0.35 -1.4,-0.35l-1.1 0 0 2.71 1.24 0zm12.17 -2.01c0,0.6 -0.08,1.12 -0.24,1.58 -0.16,0.45 -0.39,0.83 -0.69,1.13 -0.3,0.3 -0.67,0.53 -1.1,0.68 -0.43,0.16 -0.92,0.23 -1.45,0.23 -0.61,0 -1.12,-0.08 -1.55,-0.23 -0.43,-0.15 -0.78,-0.37 -1.05,-0.66 -0.27,-0.29 -0.46,-0.64 -0.58,-1.05 -0.12,-0.41 -0.18,-0.87 -0.18,-1.39l0 -6.22 1.77 0 0 6.12c0,0.32 0.03,0.6 0.08,0.84 0.05,0.25 0.15,0.45 0.29,0.62 0.14,0.17 0.31,0.3 0.52,0.38 0.21,0.09 0.46,0.13 0.78,0.13 0.29,0 0.54,-0.04 0.74,-0.11 0.2,-0.08 0.37,-0.19 0.5,-0.36 0.13,-0.16 0.23,-0.38 0.3,-0.64 0.07,-0.26 0.1,-0.57 0.1,-0.94l0 -6.04 1.76 0 0 5.93zm6.13 3.46l-2.82 -4.54 0 4.54 -1.79 0 0 -9.38 1.79 0 0 4.28 2.81 -4.28 2.13 0 -3.19 4.48 3.36 4.91 -2.28 0zm3.87 -7.94l0 -1.44 5.94 0 0 1.44 -2.07 0 0 6.49 2.07 0 0 1.46 -5.94 0 0 -1.46 2.07 0 0 -6.49 -2.07 0zm12.21 0.03l0 7.91 -1.81 0 0 -7.91 -2.57 0 0 -1.47 6.96 0 0 1.47 -2.57 0zm17.99 7.91l-0.17 -5.31 -0.06 -2.12 -0.45 1.43 -1.05 3.2 -1.1 0 -0.94 -3.2 -0.39 -1.43 -0.05 2.08 -0.16 5.35 -1.5 0 0.46 -9.38 2 0 0.82 2.67 0.4 1.5 0.4 -1.42 0.87 -2.76 2.03 0 0.46 9.38 -1.56 0zm8.38 0l-0.52 -1.85 -3.28 0 -0.53 1.85 -1.75 0 2.78 -9.38 2.47 0 2.78 9.38 -1.95 0zm-2.14 -7.67l-1.25 4.38 2.47 0 -1.22 -4.38zm9.9 7.67l-2.82 -4.54 0 4.54 -1.79 0 0 -9.38 1.79 0 0 4.28 2.81 -4.28 2.13 0 -3.19 4.48 3.36 4.91 -2.28 0zm9.01 0l-0.17 -5.31 -0.06 -2.12 -0.45 1.43 -1.05 3.2 -1.11 0 -0.94 -3.2 -0.39 -1.43 -0.05 2.08 -0.16 5.35 -1.5 0 0.46 -9.38 2 0 0.82 2.67 0.4 1.5 0.4 -1.42 0.87 -2.76 2.03 0 0.46 9.38 -1.56 0zm9.43 -3.46c0,0.6 -0.08,1.12 -0.24,1.58 -0.16,0.45 -0.39,0.83 -0.69,1.13 -0.3,0.3 -0.67,0.53 -1.1,0.68 -0.43,0.16 -0.92,0.23 -1.45,0.23 -0.61,0 -1.12,-0.08 -1.55,-0.23 -0.43,-0.15 -0.78,-0.37 -1.05,-0.66 -0.27,-0.29 -0.46,-0.64 -0.58,-1.05 -0.12,-0.41 -0.18,-0.87 -0.18,-1.39l0 -6.22 1.77 0 0 6.12c0,0.32 0.03,0.6 0.08,0.84 0.05,0.25 0.15,0.45 0.29,0.62 0.14,0.17 0.31,0.3 0.51,0.38 0.21,0.09 0.47,0.13 0.78,0.13 0.29,0 0.54,-0.04 0.74,-0.11 0.2,-0.08 0.37,-0.19 0.5,-0.36 0.13,-0.16 0.23,-0.38 0.3,-0.64 0.07,-0.26 0.1,-0.57 0.1,-0.94l0 -6.04 1.77 0 0 5.93zm6.4 3.46l-1.33 -3.02c-0.12,-0.29 -0.3,-0.5 -0.52,-0.65 -0.22,-0.15 -0.49,-0.22 -0.78,-0.22l-0.34 0 0 3.88 -1.77 0 0 -9.38 2.74 0c0.52,0 0.99,0.04 1.41,0.13 0.42,0.09 0.78,0.24 1.08,0.44 0.3,0.21 0.52,0.48 0.69,0.8 0.16,0.33 0.24,0.74 0.24,1.21 0,0.35 -0.05,0.65 -0.15,0.92 -0.1,0.27 -0.24,0.5 -0.43,0.69 -0.18,0.19 -0.4,0.35 -0.65,0.47 -0.25,0.12 -0.52,0.2 -0.82,0.25 0.23,0.05 0.44,0.18 0.63,0.39 0.19,0.21 0.39,0.52 0.58,0.92l1.51 3.15 -2.08 0zm-0.44 -6.62c0,-0.46 -0.15,-0.79 -0.44,-0.99 -0.29,-0.2 -0.73,-0.3 -1.32,-0.3l-0.78 0 0 2.65 0.72 0c0.27,0 0.52,-0.03 0.74,-0.09 0.22,-0.06 0.41,-0.15 0.57,-0.26 0.16,-0.12 0.28,-0.26 0.36,-0.43 0.09,-0.17 0.13,-0.36 0.13,-0.58zm18.15 6.62l-0.17 -5.31 -0.06 -2.12 -0.45 1.43 -1.05 3.2 -1.1 0 -0.94 -3.2 -0.4 -1.43 -0.05 2.08 -0.16 5.35 -1.5 0 0.46 -9.38 2 0 0.82 2.67 0.39 1.5 0.4 -1.42 0.87 -2.76 2.03 0 0.46 9.38 -1.56 0zm8.24 0l-0.52 -1.85 -3.28 0 -0.53 1.85 -1.75 0 2.78 -9.38 2.47 0 2.78 9.38 -1.95 0zm-2.14 -7.67l-1.25 4.38 2.47 0 -1.22 -4.38zm9.53 7.67l-2.52 -5.6 -0.52 -1.21 0 3.89 0 2.92 -1.6 0 0 -9.38 2.16 0 2.58 5.64 0.45 1.1 0 -4.14 0 -2.59 1.6 0 0 9.38 -2.15 0zm11.16 -4.81c0,0.73 -0.09,1.39 -0.27,1.98 -0.18,0.59 -0.46,1.1 -0.84,1.52 -0.38,0.42 -0.87,0.74 -1.46,0.97 -0.59,0.23 -1.3,0.34 -2.13,0.34l-2.38 0 0 -9.38 2.78 0c0.72,0 1.35,0.09 1.89,0.27 0.54,0.18 0.99,0.46 1.35,0.83 0.36,0.37 0.63,0.85 0.81,1.42 0.18,0.57 0.27,1.26 0.27,2.05zm-1.9 0.11c0,-0.5 -0.04,-0.96 -0.12,-1.35 -0.08,-0.4 -0.22,-0.73 -0.41,-1.01 -0.19,-0.27 -0.45,-0.48 -0.78,-0.62 -0.33,-0.15 -0.73,-0.22 -1.22,-0.22l-0.9 0 0 6.41 0.78 0c0.87,0 1.53,-0.26 1.98,-0.78 0.45,-0.51 0.67,-1.33 0.67,-2.44zm3.01 -3.25l0 -1.44 5.94 0 0 1.44 -2.07 0 0 6.49 2.07 0 0 1.46 -5.94 0 0 -1.46 2.07 0 0 -6.49 -2.07 0zm13.07 7.94l-1.33 -3.02c-0.13,-0.29 -0.3,-0.5 -0.52,-0.65 -0.22,-0.15 -0.49,-0.22 -0.78,-0.22l-0.34 0 0 3.88 -1.77 0 0 -9.38 2.74 0c0.52,0 0.99,0.04 1.41,0.13 0.42,0.09 0.78,0.24 1.08,0.44 0.3,0.21 0.52,0.48 0.69,0.8 0.16,0.33 0.24,0.74 0.24,1.21 0,0.35 -0.05,0.65 -0.15,0.92 -0.1,0.27 -0.24,0.5 -0.42,0.69 -0.18,0.19 -0.4,0.35 -0.65,0.47 -0.25,0.12 -0.52,0.2 -0.82,0.25 0.23,0.05 0.44,0.18 0.63,0.39 0.19,0.21 0.39,0.52 0.58,0.92l1.51 3.15 -2.08 0zm-0.44 -6.62c0,-0.46 -0.15,-0.79 -0.44,-0.99 -0.29,-0.2 -0.73,-0.3 -1.31,-0.3l-0.78 0 0 2.65 0.72 0c0.27,0 0.52,-0.03 0.74,-0.09 0.22,-0.06 0.41,-0.15 0.57,-0.26 0.16,-0.12 0.28,-0.26 0.37,-0.43 0.08,-0.17 0.13,-0.36 0.13,-0.58zm3.9 -1.32l0 -1.44 5.94 0 0 1.44 -2.07 0 0 6.49 2.07 0 0 1.46 -5.94 0 0 -1.46 2.07 0 0 -6.49 -2.07 0zm23.69 4.49c0,0.6 -0.08,1.12 -0.24,1.58 -0.16,0.45 -0.39,0.83 -0.69,1.13 -0.3,0.3 -0.67,0.53 -1.09,0.68 -0.43,0.16 -0.92,0.23 -1.45,0.23 -0.61,0 -1.12,-0.08 -1.55,-0.23 -0.43,-0.15 -0.78,-0.37 -1.05,-0.66 -0.27,-0.29 -0.46,-0.64 -0.58,-1.05 -0.12,-0.41 -0.18,-0.87 -0.18,-1.39l0 -6.22 1.77 0 0 6.12c0,0.32 0.03,0.6 0.08,0.84 0.05,0.25 0.15,0.45 0.29,0.62 0.14,0.17 0.31,0.3 0.52,0.38 0.21,0.09 0.46,0.13 0.78,0.13 0.29,0 0.54,-0.04 0.74,-0.11 0.2,-0.08 0.37,-0.19 0.51,-0.36 0.13,-0.16 0.23,-0.38 0.3,-0.64 0.07,-0.26 0.1,-0.57 0.1,-0.94l0 -6.04 1.77 0 0 5.93zm5.38 -4.46l0 7.91 -1.81 0 0 -7.91 -2.57 0 0 -1.47 6.96 0 0 1.47 -2.58 0zm9.95 7.91l-0.51 -1.85 -3.28 0 -0.53 1.85 -1.75 0 2.78 -9.38 2.47 0 2.78 9.38 -1.95 0zm-2.13 -7.67l-1.25 4.38 2.47 0 -1.22 -4.38zm10.28 7.67l-0.17 -5.31 -0.06 -2.12 -0.45 1.43 -1.05 3.2 -1.1 0 -0.94 -3.2 -0.39 -1.43 -0.05 2.08 -0.16 5.35 -1.5 0 0.46 -9.38 2 0 0.82 2.67 0.4 1.5 0.4 -1.42 0.87 -2.76 2.03 0 0.46 9.38 -1.56 0zm7.94 0l-0.52 -1.85 -3.28 0 -0.53 1.85 -1.75 0 2.78 -9.38 2.47 0 2.78 9.38 -1.95 0zm-2.14 -7.67l-1.25 4.38 2.47 0 -1.22 -4.38z"/>
  <path class="fil1" d="M155.05 38.96l-5.87 9.31 -17.73 -28.1 0 27.26 -12.86 0 0 -39.82c0,-4.19 3.43,-7.61 7.61,-7.61l0.31 0c2.78,0 5.32,1.52 6.66,3.94l16 25.64 16 -25.64c1.34,-2.42 3.88,-3.94 6.66,-3.94l0.31 0c4.19,0 7.61,3.43 7.61,7.61l0 39.82 -12.86 0 0 -27.26 -11.85 18.78zm-50.31 -38.96l0.83 0c3.27,0 5.94,2.68 5.94,5.94l0 17.87c0,17.72 -10.18,23.63 -26.46,23.63 -16.72,0 -26.46,-7.4 -26.46,-25.04l0 -16.45c0,-3.27 2.68,-5.94 5.95,-5.94l0.83 0c3.27,0 5.94,2.68 5.94,5.94l0 20.78c0,7.17 5.26,12.4 12.4,12.4l1.85 0c8.43,0 13.23,-4.79 13.23,-13.23l0 -19.95c0,-3.27 2.68,-5.94 5.94,-5.94zm-61.19 21.91l0.12 0c2.06,0 4.44,1.59 5.85,2.98 2.11,2.08 3.43,4.81 3.43,7.8 0,8.44 -10.27,14.14 -17.79,14.14l-25.88 0c-5.1,0 -9.28,-4.18 -9.28,-9.28l0 -28.27c0,-5.27 5.88,-9.28 10.78,-9.28l20.64 0c4.66,0 9.71,1.04 13.67,3.59 3.02,1.95 5.53,4.93 5.53,8.68 0,4.17 -2.96,8.61 -7.08,9.63zm-31.03 4.09l0 12.8 21.2 0c3.52,0 6.4,-2.88 6.4,-6.4 0,-3.52 -2.88,-6.4 -6.4,-6.4l-21.2 0zm0 -17.54l0 9.78 18.45 0c2.81,0 7.14,-1.47 7.14,-4.89 0,-3.51 -4.26,-4.89 -7.14,-4.89l-18.45 0zm215.24 28.08l-24.13 0 -5.08 10.9 -13.86 0 21.26 -39.04c2.02,-3.71 4.81,-8.4 9.6,-8.4l0.2 0c4.79,0 7.58,4.68 9.6,8.4l21.26 39.04 -13.65 0 -5.21 -10.9zm-3.94 -8.25l-8.27 -17.32 -8.07 17.32 16.34 0z"/>
 </g>
</svg>
