<?xml version="1.0" encoding="UTF-8"?>
<!DOCTYPE svg PUBLIC "-//W3C//DTD SVG 1.1//EN" "http://www.w3.org/Graphics/SVG/1.1/DTD/svg11.dtd">
<!-- Creator: CorelDRAW 2021.5 -->
<svg xmlns="http://www.w3.org/2000/svg" xml:space="preserve" width="10.3746mm" height="6.4098mm" version="1.1" style="shape-rendering:geometricPrecision; text-rendering:geometricPrecision; image-rendering:optimizeQuality; fill-rule:evenodd; clip-rule:evenodd"
viewBox="0 0 95.76 59.16"
 xmlns:xlink="http://www.w3.org/1999/xlink"
 xmlns:xodm="http://www.corel.com/coreldraw/odm/2003">
 <defs>
  <style type="text/css">
   <![CDATA[
    .fil0 {fill:white}
   ]]>
  </style>
 </defs>
 <g id="Layer_x0020_1">
  <metadata id="CorelCorpID_0Corel-Layer"/>
  <path class="fil0" d="M95.06 8.52c-1.1,3.79 -2.36,7.69 -3.74,11.72 -1.1,11.74 -0.94,21.3 0.37,28.76 0.12,0.69 0.11,1.01 0.49,1.65 1.64,2.14 2.11,5 -0.28,6.1 -3.46,1.6 -5.8,-1.11 -6.81,-7.53 -0.51,-3.25 -0.82,-6.61 -1.06,-10.4 -1.29,3.04 -3.08,6 -5.06,8.52 -3.84,4.89 -9.28,4.79 -12.07,-1.27 -2.84,-6.18 -3.53,-17.44 -1.39,-31.23 0.66,-4.29 1.69,-6.74 2.69,-7.55 1.83,-1.48 3.63,-1.58 5.27,0.08 1.48,1.5 1.16,3.54 -0.6,4.92 -1.43,5.1 -1.96,11.18 -2.03,16.67 -0.09,6.79 0.6,12.68 2.19,14.71 2.1,-1.92 3.87,-5.14 5.4,-8.61 2.02,-4.61 4.07,-10.07 6.34,-16.33 0.88,-5.96 1.82,-10.57 2.83,-13.83 1.15,-3.68 3.03,-5.44 5.52,-4.75 2.7,0.75 3.3,3.72 1.95,8.38zm-81.52 19.16l0 0c5.9,0 10.68,5.18 10.68,11.57 0,6.39 -4.78,11.56 -10.68,11.56 -2.6,0 -4.99,-1.01 -6.84,-2.69l0 1.96 -6.7 0 0 -31.37 6.7 0 0 11.65c1.85,-1.68 4.24,-2.69 6.84,-2.69zm-6.84 10.83l0 0 0 1.46c0.34,2.96 2.68,5.25 5.52,5.25 3.07,0 5.56,-2.68 5.56,-5.98 0,-3.3 -2.49,-5.98 -5.56,-5.98 -2.84,0 -5.18,2.29 -5.52,5.25zm34.63 20.64l0 0 -7.1 0 3.48 -8.09 -9.06 -21.06 7.1 0 5.32 13.24 5.7 -13.24 7.1 0 -12.54 29.15zm15 -15.24l0 0c-2.18,0 -3.94,1.54 -3.94,3.45 0,1.9 1.77,3.45 3.94,3.45 2.18,0 3.94,-1.54 3.94,-3.45 0,-1.9 -1.77,-3.45 -3.94,-3.45z"/>
 </g>
</svg>
