<?xml version="1.0" encoding="UTF-8"?>
<!DOCTYPE svg PUBLIC "-//W3C//DTD SVG 1.1//EN" "http://www.w3.org/Graphics/SVG/1.1/DTD/svg11.dtd">
<!-- Creator: CorelDRAW 2021.5 -->
<svg xmlns="http://www.w3.org/2000/svg" xml:space="preserve" width="171.485mm" height="48.4666mm" version="1.1" style="shape-rendering:geometricPrecision; text-rendering:geometricPrecision; image-rendering:optimizeQuality; fill-rule:evenodd; clip-rule:evenodd"
viewBox="0 0 52538.83 14848.95"
 xmlns:xlink="http://www.w3.org/1999/xlink"
 xmlns:xodm="http://www.corel.com/coreldraw/odm/2003">
 <defs>
  <style type="text/css">
   <![CDATA[
    .fil0 {fill:white}
   ]]>
  </style>
 </defs>
 <g id="Layer_x0020_1">
  <metadata id="CorelCorpID_0Corel-Layer"/>
  <g id="_2222894167872">
   <g>
    <g>
     <g>
      <path class="fil0" d="M3657.26 7403.55c-6.25,-74.63 -2286.94,-6968.16 -2453.05,-7314.3l-1204.21 0c17.77,213.6 2002.16,5471.83 2255.84,6128.97 86.49,224.14 145.5,399.21 225.09,622.22 135.14,378.71 1115.79,2913.93 1131.69,3105.29l3122.02 -7448.13c67.19,288.51 1342.66,3356.8 1490.85,3727.33 116.94,292.34 1480.16,3558.76 1497.35,3765.41 126.53,-92.74 437.87,-1039.25 495.75,-1199.03l2988.69 -8027.42c57.41,-159.87 203.16,-503.71 217.34,-674.64l-1204.21 0c-70.44,302.36 -205.24,630.27 -305.76,898.41 -507.42,1353.6 -1028.84,3201.43 -1529.3,4536.28l-617.93 1835.06 -116.48 -195.71c-37.75,-89.28 -52.64,-137.23 -87.44,-224.76 -70.93,-178.46 -128.65,-324.33 -190.66,-478.37l-1886.81 -4624.73c-121.29,-301.11 -239.4,-599.15 -369.09,-924.33 -79.35,-199.05 -304.84,-821.7 -426.9,-911.1 -41.12,176.47 -98.32,291.15 -165.6,458.83l-942.99 2312.73c-131.37,329.17 -241.55,621.6 -382.02,956.04l-1121.39 2758.75c-73.13,183.37 -130.36,300.62 -197.86,471.14 -57.54,145.13 -103.4,358.52 -222.92,446.05z"/>
      <path class="fil0" d="M28499.39 6288.59c0,-635.24 237.78,-1328.72 635.7,-1772.75 564.37,-629.78 1147.5,-1002.27 2089.05,-1028.26 2429.68,-67.03 3756.49,2971.41 2026.67,4831.78 -1032.39,1110.33 -2973.8,1109.17 -3959.5,-12.96 -402.82,-458.58 -791.92,-1175.87 -791.92,-2017.82zm5485.83 -2274.59l0 0c-197.06,-131.89 -282.11,-310.48 -500.8,-525.03 -99.66,-97.76 -183.21,-154.23 -291.33,-243.84 -479.2,-397.25 -1295.41,-658.31 -2062.27,-658.31 -1921.71,0 -3568.01,1756.57 -3568.01,3478.73 0,1168.7 254.02,2069.41 1014.44,2821.16 1104.48,1091.89 2189.42,1295.9 3658.21,959.44 338.08,-77.42 997.62,-463.39 1248.88,-713.46 169.36,-168.57 308.52,-351.57 500.89,-480.37l0 1159.6 936.56 0 0 -9722.69 -936.56 0 0 3924.75z"/>
      <path class="fil0" d="M40630.55 9142.93c-837.02,0 -1449.74,-221.05 -2019.41,-790.32 -1497.53,-1496.58 -838.12,-3954.47 788.55,-4632.85 1059.44,-441.85 2246.34,-241.79 3072.21,549.15 1065.69,1020.57 1156.93,2924.1 43.14,4037.87 -261.98,261.98 -450.25,383.83 -770.62,567.41 -255.33,146.39 -708.16,268.75 -1113.86,268.75zm-3835.57 -2854.34l0 0c0,928.35 495.19,2189.6 1210.55,2758.84 404.32,321.69 784.75,657.82 1403.81,826.14 738.92,200.89 1361.74,131.16 2065.86,-19.82 261.77,-56.16 455.86,-177.15 687.41,-293.84 689.59,-347.55 796.39,-782.08 1099.4,-862.94l0 1114.96 891.98 0 0 -6912.95c0,-216.48 -324.51,-133.79 -891.98,-133.79l0 1248.81c-102.7,-68.75 -165.57,-132.84 -248.93,-241.73 -361.46,-472.46 -971.85,-869.71 -1553.29,-1033.43 -2459.24,-692.53 -4664.8,1227.4 -4664.8,3549.75z"/>
      <path class="fil0" d="M14584.21 6333.17c0,-1186.28 653.47,-2088.44 1560.49,-2542.67 1362.97,-682.66 3009,-119.27 3673.31,1189.07 335.82,661.37 296.57,896.36 296.57,1621.18 0,1320.69 -1304.94,2542.18 -2586.78,2542.18 -917.29,0 -1459.75,-202.33 -2091.68,-807.27 -462.99,-443.17 -851.91,-1137.91 -851.91,-2002.5zm-936.59 -356.77l0 0c0,751.91 5.36,1190.85 341.3,1888.65 551.35,1145.05 1615.24,2125.29 3092.92,2125.29 2169.47,0 2327.13,-943.6 2988.23,-1293.36l0 1114.96 891.98 0 0 -7046.75c-1111.74,0 -891.98,-238.79 -891.98,1248.81 -246.97,-284.1 -477.39,-562.6 -784.11,-776.94 -352.85,-246.48 -638.09,-378.89 -1049.64,-511.4 -2308.75,-743.14 -4588.7,1402.43 -4588.7,3250.73z"/>
      <path class="fil0" d="M46383.94 9811.93l936.65 0 0 -3389.55c0,-1010.49 334.41,-1979.73 1056.5,-2511.48 207.29,-152.67 540.02,-320.22 814.62,-389.59 1097.1,-277.24 1939.6,179.26 2256.82,1136.93 87.78,264.86 153.71,718.94 153.71,1050.53l0 4103.16 936.59 0 0 -4103.16c0,-3749.6 -3632.07,-3666.57 -4912.69,-2058.2 -114.98,144.39 -149.2,214.13 -305.55,318.81l0 -3880.15 -936.65 0 0 9722.69z"/>
      <path class="fil0" d="M24173.23 3746.41l0 -981.23 -936.59 0 0 7046.75 936.59 0c0,-1293.91 -124.48,-4331.25 340.44,-5279.05 121.36,-247.43 348.07,-557.02 557.76,-735.7 193.57,-164.89 377.24,-266.79 684.72,-292.93 244.76,-20.86 375.8,89.49 602.49,108.33 144.21,-272.58 304.78,-491.36 445.96,-758.16 -1385,-927.49 -2536.85,822.74 -2631.36,891.98z"/>
      <path class="fil0" d="M38266.81 1516.43c218.32,-18.2 709.69,-247.64 1439.87,-101.93 1408.5,281.07 1978.11,573.84 3492.18,306.37 192.37,-33.98 497.4,-66.76 598.32,-204.44 -1414.5,329.54 -3080.42,-856.5 -4403.83,-612.84 -372.25,68.51 -949.27,348.13 -1126.54,612.84z"/>
     </g>
     <path class="fil0" d="M3420.68 12142.96c0,-46.63 16.64,-87.1 49.36,-120.9 33.3,-33.36 73.59,-50.21 120.96,-50.21 45.89,0 85.66,16.85 118.93,51.2 32.78,33.82 49.42,74.82 49.42,122.95 0,47.15 -16.12,87.62 -48.87,120.44 -32.29,33.27 -72.61,49.66 -119.49,49.66 -47.37,0 -87.65,-16.39 -120.96,-49.66 -32.72,-32.81 -49.36,-74.3 -49.36,-123.47zm54.38 2035.89l0 0 0 -1374.03 232.84 0 0 1374.03 -232.84 0zm2742.82 0l0 0 0 -1374.03 226.78 0 0 212.13c57.9,-88.11 127.97,-153.71 209.65,-196.75 81.65,-43.02 176.38,-64.52 283.27,-64.52 159.74,0 284.22,43.05 373.41,129.08 89.68,86.06 134.59,205.95 134.59,359.13l0 934.96 -235.88 0 0 -808.95c0,-139.34 -28.71,-242.31 -86.21,-309.9 -57.9,-67.65 -146.63,-101.44 -266.58,-101.44 -69.06,0 -132.05,12.78 -188.51,38.39 -56.4,25.64 -103.31,61.46 -141.09,108.61 -28.28,35.88 -48.87,77.39 -61.03,122.95 -12.56,46.11 -18.63,126.07 -18.63,240.26l0 710.09 -229.78 0zm3564.73 -231.04l0 0 198.07 -134.74c37.29,72.76 84.13,127.05 141.61,163.42 56.99,36.4 124.48,54.81 202.12,54.81 75.58,0 137.07,-18.96 183.98,-56.83 46.84,-37.93 70.04,-88.11 70.04,-150.12 0,-47.67 -16.12,-87.59 -47.86,-119.88 -32.32,-31.77 -87.22,-61.49 -164.83,-88.14l-38.33 -13.79c-328.59,-114.8 -492.9,-259.22 -492.9,-432.42 0,-121.91 44.39,-221.85 132.6,-298.65 88.63,-77.36 203.62,-115.78 345.22,-115.78 117.43,0 217.71,23.56 301.41,71.17 83.61,47.67 143.6,114.8 179.9,201.87l-187.04 117.31c-27.64,-63.02 -68.47,-111.67 -121.94,-145.5 -53.92,-34.28 -115.93,-51.2 -186.98,-51.2 -67.98,0 -123.44,19.42 -166.33,57.87 -42.8,38.42 -63.97,87.62 -63.97,148.04 0,84.01 89.68,154.75 268.63,211.58 33.76,11.27 60.45,19.52 80.09,25.61 146.2,48.19 248.5,102.97 306.01,164.46 57.38,61.46 86.12,142.43 86.12,243.91 0,129.57 -45.34,235.14 -136.58,315.54 -90.72,80.42 -209.65,120.93 -356.31,120.93 -125.98,0 -232.81,-24.08 -321.02,-72.27 -87.72,-47.61 -158.76,-120.37 -211.71,-217.19zm3620.25 -451.32l0 0c0,154.17 41.82,277.67 125.46,370.9 83.7,92.71 194.55,139.34 332.63,139.34 134.59,0 240.93,-42.52 318.05,-127.54 77.11,-85.08 115.9,-202.91 115.9,-354.05 0,-169.03 -38.79,-301.72 -115.9,-398.01 -77.11,-95.83 -184.96,-144 -322.55,-144 -141.18,0 -251.47,45.59 -332.63,136.77 -80.67,90.72 -120.96,216.24 -120.96,376.6zm-223.78 1352.46l0 0 0 -2044.13 220.68 0 0 259.22c52.45,-99.33 121.51,-175.71 206.71,-228.43 85.63,-53.31 181.4,-79.93 286.77,-79.93 195.01,0 351.23,67.59 469.21,202.88 118.41,134.74 177.33,314.03 177.33,536.86 0,227.48 -57.94,407.85 -173.32,541.52 -115.93,133.7 -270.65,200.34 -464.68,200.34 -110.91,0 -208.18,-25.64 -290.84,-77.39 -82.63,-51.2 -149.66,-128.03 -202.12,-229.51l0 918.57 -229.75 0zm3709.4 -2706l0 0c0,-46.63 16.64,-87.1 49.42,-120.9 33.24,-33.36 73.56,-50.21 120.96,-50.21 45.83,0 85.63,16.85 118.93,51.2 32.72,33.82 49.36,74.82 49.36,122.95 0,47.15 -16.12,87.62 -48.87,120.44 -32.29,33.27 -72.58,49.66 -119.42,49.66 -47.4,0 -87.72,-16.39 -120.96,-49.66 -32.78,-32.81 -49.42,-74.3 -49.42,-123.47zm54.41 2035.89l0 0 0 -1374.03 232.88 0 0 1374.03 -232.88 0zm2745.85 0l0 0 0 -1374.03 206.1 0 0 286.43c62.01,-119.36 128.03,-204.44 198.07,-255.64 70.07,-51.26 155.24,-76.87 255.52,-76.87 27.73,0 54.44,2.05 80.15,6.65 25.15,4.63 50.86,11.27 76.59,20.01l-76.59 213.08c-26.78,-9.22 -51.96,-15.87 -75.64,-20.5 -23.65,-4.6 -46.35,-6.65 -68.02,-6.65 -121.94,0 -213.67,44.58 -274.63,134.22 -61,89.68 -91.73,224.42 -91.73,404.2l0 669.09 -229.81 0zm3038.6 -2035.89l0 0c0,-46.63 16.64,-87.1 49.42,-120.9 33.27,-33.36 73.56,-50.21 120.96,-50.21 45.83,0 85.63,16.85 118.93,51.2 32.72,33.82 49.36,74.82 49.36,122.95 0,47.15 -16.12,87.62 -48.84,120.44 -32.32,33.27 -72.61,49.66 -119.46,49.66 -47.4,0 -87.68,-16.39 -120.96,-49.66 -32.78,-32.81 -49.42,-74.3 -49.42,-123.47zm54.41 2035.89l0 0 0 -1374.03 232.88 0 0 1374.03 -232.88 0zm2742.82 0l0 0 0 -1374.03 226.75 0 0 212.13c57.97,-88.11 128,-153.71 209.71,-196.75 81.59,-43.02 176.38,-64.52 283.21,-64.52 159.77,0 284.25,43.05 373.41,129.08 89.71,86.06 134.56,205.95 134.56,359.13l0 934.96 -235.88 0 0 -808.95c0,-139.34 -28.71,-242.31 -86.18,-309.9 -57.94,-67.65 -146.63,-101.44 -266.58,-101.44 -69,0 -132.02,12.78 -188.45,38.39 -56.46,25.64 -103.37,61.46 -141.15,108.61 -28.22,35.88 -48.84,77.39 -61,122.95 -12.59,46.11 -18.66,126.07 -18.66,240.26l0 710.09 -229.75 0zm4741.52 -682.36l0 0c0,-154.26 -41.33,-278.19 -123.96,-372.49 -83.18,-93.75 -191.55,-140.87 -326.6,-140.87 -138.6,0 -246.94,43.54 -325.06,130.67 -77.64,87.07 -116.42,208.49 -116.42,364.71 0,165.99 39.34,294.12 117.4,383.77 78.16,90.14 189,135.23 333.15,135.23 137.59,0 245.99,-44.06 324.05,-132.69 78.13,-88.6 117.43,-211.55 117.43,-368.32zm223.78 -691.67l0 0 0 1349.98c0,149.05 -10.05,255.12 -29.69,318.63 -19.73,62.99 -51.96,119.36 -97.27,169.58 -63.05,69.15 -140.17,120.93 -231.34,154.72 -90.75,34.34 -195.59,51.23 -313.51,51.23 -205.09,0 -364.37,-47.67 -479.32,-142.89 -114.86,-95.31 -174.36,-230.06 -179.35,-404.26l259.99 0 0 17.98c0,103.46 34.8,182.88 104.84,239.19 70.07,55.85 168.84,84.04 296.88,84.04 92.74,0 171.88,-15.35 237.35,-45.59 65.56,-30.76 115.41,-76.32 149.76,-136.28 20.65,-33.79 35.72,-73.78 44.33,-118.87 9.07,-45.04 13.57,-109.62 13.57,-193.66l0 -108.09 0 -122.4c-52.42,97.79 -120.96,172.61 -205.12,225.4 -84.68,52.24 -179.93,78.37 -285.3,78.37 -194,0 -350.25,-67.1 -468.63,-201.32 -118.44,-133.76 -177.91,-312.01 -177.91,-533.83 0,-224.42 57.45,-402.21 172.8,-533.83 114.98,-131.71 269.18,-197.24 462.2,-197.24 111.92,0 210.69,25.61 295.35,77.33 84.68,51.75 151.2,128.06 200.61,228l0 -256.19 229.78 0zm3603.61 694.71l0 0c0,159.84 40.32,285.36 121.48,375.03 80.61,90.17 191.48,135.26 332.11,135.26 137.59,0 245.93,-47.67 324.05,-143.51 78.13,-95.22 117.46,-227.91 117.46,-397 0,-150.09 -38.33,-267.47 -115.44,-352.48 -76.62,-85.02 -182.94,-127.57 -318.51,-127.57 -138.14,0 -249.51,46.63 -334.16,140.38 -84.68,93.23 -126.99,216.73 -126.99,369.89zm-220.71 -1647.56l0 0 229.78 0 0 1212.08c52.45,-101.93 119.46,-179.29 202.08,-231.04 82.66,-51.72 179.93,-77.33 290.81,-77.33 194.03,0 348.75,67.13 464.68,201.35 115.41,133.67 173.38,313.51 173.38,538.39 0,223.41 -58.92,402.67 -177.42,538.48 -117.92,135.75 -274.14,203.37 -469.18,203.37 -104.35,0 -199.6,-26.65 -285.3,-79.9 -85.14,-53.83 -154.72,-129.11 -208.12,-226.99l0 248.47 -220.71 0 0 -2326.89zm4710.3 1484.63l0 0c-8.06,-120.9 -47.4,-214.13 -118.93,-279.69 -71.08,-65.59 -168.84,-98.35 -292.77,-98.35 -112.44,0 -206.19,34.28 -280.73,102.97 -75.15,68.11 -118.51,159.81 -130.06,275.06l822.49 0zm247.95 190.6l0 0 -1070.44 0 0 21.02c0,147.03 41.33,265.87 123.99,356.59 82.66,90.66 190.47,135.72 323.56,135.72 90.2,0 172.34,-24.6 244.89,-74.27 73.07,-49.2 137.62,-123.99 193.6,-223.87l175.34 119.88c-67.49,123.96 -154.2,217.71 -259.53,280.73 -105.33,62.99 -227.3,94.27 -366.39,94.27 -205.64,0 -371.97,-69.15 -498.96,-206.96 -127.02,-138.33 -190.47,-319.7 -190.47,-543.57 0,-215.2 62.96,-391.39 189,-528.74 125.95,-136.8 287.75,-205.42 485.82,-205.42 199.57,0 357.78,65.04 474.76,195.22 116.42,130.12 174.85,307.88 174.85,532.76l0 46.63zm3405.02 -21.48l0 0c0,-155.24 -41.79,-280.24 -124.97,-374.54 -83.15,-94.76 -191.51,-141.91 -325.55,-141.91 -138.6,0 -246.97,43.57 -324.6,130.64 -78.13,87.13 -116.91,208.55 -116.91,364.8 0,165.96 39.31,294.03 117.43,383.67 78.13,90.2 189.52,135.3 333.15,135.3 137.56,0 245.93,-43.57 324.05,-131.16 78.13,-87.62 117.4,-210.05 117.4,-366.79zm223.75 -700.89l0 0 0 1374.03 -223.75 0 0 -248.99c-53.86,99.94 -123.44,176.26 -207.63,228.53 -84.19,52.76 -178.37,78.89 -282.72,78.89 -193.54,0 -350.31,-67.62 -468.72,-203.37 -118.41,-135.82 -177.88,-315.08 -177.88,-538.48 0,-225.92 57.41,-405.7 172.86,-539.46 114.89,-133.67 269.15,-200.28 462.14,-200.28 112.87,0 211.18,25.61 294.33,77.33 83.18,51.75 150.68,129.11 201.63,231.04l0 -259.22 229.75 0zm2702.53 0l0 0 0 676.29c0,197.21 28.71,335.02 86.18,413.91 57.94,78.4 154.72,117.86 291.79,117.86 136.58,0 233.34,-38.94 290.26,-116.33 56.43,-77.85 84.71,-216.18 84.71,-415.44l0 -676.29 235.82 0 0 802.27c0,206.99 -51.87,363.76 -156.25,470.32 -104.32,106.56 -257.97,159.87 -460.63,159.87 -200.52,0 -353.25,-53.31 -457.57,-160.36 -104.38,-107.08 -156.25,-263.85 -156.25,-469.83l0 -802.27 241.94 0zm3494.7 193.66l0 0 -247.95 0 0 -193.66 247.95 0 0 -553.25 235.85 0 0 553.25 247.95 0 0 193.66 -247.95 0 0 1180.37 -235.85 0 0 -1180.37zm2715.09 1850.47l0 0 366.33 -804.85 -530.15 -1239.29 267.16 0 393.08 986.77 416.3 -986.77 253.98 0 -906.69 2044.13 -260.02 0z"/>
    </g>
   </g>
  </g>
 </g>
</svg>
