<?xml version="1.0" encoding="UTF-8"?>
<!DOCTYPE svg PUBLIC "-//W3C//DTD SVG 1.1//EN" "http://www.w3.org/Graphics/SVG/1.1/DTD/svg11.dtd">
<!-- Creator: CorelDRAW 2021.5 -->
<svg xmlns="http://www.w3.org/2000/svg" xml:space="preserve" width="13.9258mm" height="11.4422mm" version="1.1" style="shape-rendering:geometricPrecision; text-rendering:geometricPrecision; image-rendering:optimizeQuality; fill-rule:evenodd; clip-rule:evenodd"
viewBox="0 0 235 193.09"
 xmlns:xlink="http://www.w3.org/1999/xlink"
 xmlns:xodm="http://www.corel.com/coreldraw/odm/2003">
 <defs>
  <style type="text/css">
   <![CDATA[
    .fil0 {fill:white;fill-rule:nonzero}
   ]]>
  </style>
 </defs>
 <g id="Layer_x0020_1">
  <metadata id="CorelCorpID_0Corel-Layer"/>
  <path class="fil0" d="M115.32 0.19c1.88,-0.63 3.73,0.41 5.43,1.09 24.04,10.46 48.1,20.88 72.01,31.62 4.89,2.08 9.76,4.32 14.13,7.38 2.92,2.12 5.57,4.66 7.65,7.62 2.87,4.47 4.35,9.64 5.7,14.72 0.67,2.93 1.43,5.86 1.67,8.86 -13.22,-0.01 -26.44,0 -39.66,-0.01 -0.08,-2.41 0.29,-4.89 -0.52,-7.22 -0.66,-2.61 -2.33,-4.94 -4.58,-6.42 -1.76,-1.19 -3.68,-2.16 -5.62,-3.02 -10.72,-3.62 -21.43,-7.31 -32.17,-10.88 -1.82,-0.74 -3.61,1.16 -3.59,2.91 -0.04,9.67 0.05,19.36 -0.04,29.03 7.09,-2.56 14.64,-3.83 22.18,-3.82 8.17,0.11 16.24,2.05 23.77,5.14 10.61,4.38 19.35,12.31 26.52,21.11 10.47,12.92 18.04,27.88 24.85,42.96 -16.26,-0.05 -32.52,-0.01 -48.78,-0.01 -1.11,-5.69 -3.39,-11.12 -6.41,-16.05 -2.92,-4.68 -6.51,-9.06 -11.1,-12.18 -3.9,-2.62 -8.69,-4.07 -13.4,-3.41 -5.58,0.61 -10.5,4.1 -13.69,8.6 -4.76,6.59 -6.23,15.1 -5.23,23.07 -11.74,-0.07 -23.47,-0.03 -35.21,-0.02 0.46,-6.31 -0.78,-12.79 -3.84,-18.36 -2.65,-4.97 -6.71,-9.34 -11.85,-11.77 -5,-2.37 -11.05,-2.41 -16.07,-0.09 -4.15,1.94 -7.44,5.3 -10.07,8.98 -4.43,6.28 -7.24,13.64 -8.33,21.24 -16.02,-0.02 -32.04,0.01 -48.06,-0.01 2.64,-6.88 5.8,-13.54 9.18,-20.09 6.1,-11.56 13.17,-22.82 22.65,-31.93 9.27,-8.89 21.22,-15.26 34.06,-16.78 10.86,-1.24 22.02,0.14 32.25,4 0.12,-9.75 0.03,-19.5 0.05,-29.25 0.17,-2.07 -2.01,-4.08 -4.06,-3.31 -10.36,3.35 -20.7,6.8 -31.03,10.24 -0.79,0.22 -1.55,0.52 -2.26,0.94 -2.26,1.33 -4.59,2.72 -6.22,4.82 -1.21,1.41 -2.23,3.11 -2.25,5.02 -0.05,2.18 0,4.36 -0.01,6.54 -13.65,0.04 -27.29,-0.01 -40.94,0.03 -0.09,-2.07 -0.26,-4.14 -0.14,-6.22 0.28,-5.65 2.38,-11.08 5.37,-15.83 3.85,-5.79 9.7,-9.9 15.76,-13.11 24.85,-11.69 50.02,-22.7 75.29,-33.45 2.2,-0.92 4.39,-1.83 6.6,-2.7zm-115.32 192.87c0.03,-10.7 0.01,-21.39 0,-32.08 4.5,0 9,0.01 13.5,-0 1.95,6.23 3.77,12.5 5.61,18.77 1.84,-6.25 3.65,-12.51 5.48,-18.76 4.56,-0.03 9.12,0.02 13.68,-0.02 -0.01,10.7 -0.01,21.4 0,32.1 -3.2,-0.01 -6.41,0 -9.61,-0 0.05,-5.66 -0.1,-11.33 0.11,-16.99 0.01,-2.19 0.28,-4.39 0.06,-6.57 -1.91,7.94 -4.32,15.76 -6.8,23.55 -2.42,0.02 -4.85,-0.01 -7.27,0.02 -2.69,-7.79 -4.76,-15.77 -7.11,-23.66 -0.05,0.61 -0.08,1.23 -0.03,1.85 0.56,7.26 0.23,14.54 0.32,21.82 -2.65,-0.04 -5.3,-0.03 -7.95,-0.01zm53.35 -32.08c3.8,-0.02 7.61,0.02 11.41,-0.02 3.79,10.69 7.63,21.37 11.32,32.09 -3.4,-0 -6.79,-0.01 -10.18,0 -0.87,-2.29 -1.77,-4.56 -2.59,-6.87 -3.4,-0.01 -6.8,-0 -10.2,-0 -0.78,2.31 -1.67,4.59 -2.51,6.88 -2.91,-0.05 -5.82,0.01 -8.73,-0.03 3.84,-10.68 7.65,-21.37 11.47,-32.06zm5.14 9.01c-1.06,3.3 -2.14,6.6 -3.34,9.86 2.18,0.01 4.36,0.02 6.54,-0 -1.18,-3.25 -1.93,-6.66 -3.21,-9.85zm20.89 -9.01c4.87,0 9.75,-0.02 14.63,0.01 3.78,0.1 7.79,0.81 10.76,3.32 3.35,2.79 4.93,7.18 5.24,11.43 0.28,4.26 -0.75,8.78 -3.55,12.1 -3.2,3.58 -8.12,5.02 -12.78,5.19 -4.77,0.05 -9.53,0.02 -14.3,0.03 -0.01,-10.69 0.02,-21.38 -0.01,-32.07zm10.2 6.7c0.03,6.17 0.02,12.34 0,18.51 2.38,0.08 5.06,0.02 6.94,-1.67 2.12,-1.81 2.49,-4.81 2.53,-7.44 -0.07,-2.55 -0.34,-5.39 -2.21,-7.31 -1.9,-1.85 -4.71,-2.25 -7.26,-2.1zm25 -6.67c3.51,-0.09 7.03,0.02 10.55,-0.05 -0,3.99 0.01,7.97 -0.01,11.96 3.15,-0 6.29,0 9.44,0 -0.02,-3.98 0,-7.97 -0.02,-11.95 3.4,0.03 6.8,0.02 10.2,0.01 -0.04,10.69 0,21.38 -0.04,32.08 -3.39,0.02 -6.77,-0.03 -10.15,0.02 0.01,-4.27 -0.01,-8.53 0.01,-12.8 -3.14,-0.01 -6.29,-0.01 -9.43,0 0.02,4.26 0,8.52 0,12.79 -3.51,-0.02 -7.02,-0.02 -10.53,0.01 -0.01,-10.69 0.05,-21.37 -0.02,-32.06zm45.45 -0.03c3.9,0.01 7.81,-0.04 11.71,0.01 3.71,10.72 7.66,21.36 11.34,32.09 -3.48,-0.07 -6.97,-0.03 -10.45,-0.01 -0.92,-2.27 -1.76,-4.58 -2.65,-6.87 -3.38,-0.03 -6.77,-0.04 -10.15,0 -0.75,2.3 -1.65,4.54 -2.43,6.83 -2.98,0.04 -5.96,0.04 -8.94,0.02 3.94,-10.66 7.68,-21.39 11.56,-32.06zm5.24 8.88c-1.06,3.34 -2.21,6.66 -3.3,10 2.18,0 4.35,-0.02 6.53,0.01 -1.13,-3.32 -2.05,-6.7 -3.23,-10zm21.59 23.2c0.02,-10.7 0,-21.4 0.01,-32.1 3.57,0.02 7.14,0.04 10.72,-0.01 3.86,6.07 7.58,12.23 11.49,18.27 0.1,-3.48 -0.2,-6.95 -0.08,-10.43 0.03,-2.6 0.11,-5.21 0.04,-7.81 2.87,-0.01 5.74,0.01 8.6,-0.01 -0.02,10.69 0,21.38 -0.01,32.08 -3.07,0.02 -6.14,0.01 -9.2,-0.01 -2.79,-4.08 -5.47,-8.23 -8.22,-12.34 -1.69,-2.49 -3.19,-5.11 -5.01,-7.51 0.14,6.62 0.04,13.25 0.05,19.88 -2.8,-0.04 -5.59,-0.02 -8.38,-0zm37.77 -32.09c3.46,-0.01 6.91,0 10.37,-0 -0.03,10.69 -0.01,21.38 -0.01,32.07 -3.45,0.03 -6.89,0.01 -10.34,0.01 0.01,-10.69 0.03,-21.38 -0.02,-32.07z"/>
 </g>
</svg>
