<?xml version="1.0" encoding="UTF-8"?>
<!DOCTYPE svg PUBLIC "-//W3C//DTD SVG 1.1//EN" "http://www.w3.org/Graphics/SVG/1.1/DTD/svg11.dtd">
<!-- Creator: CorelDRAW 2021.5 -->
<svg xmlns="http://www.w3.org/2000/svg" xml:space="preserve" width="68.4046mm" height="22.7498mm" version="1.1" style="shape-rendering:geometricPrecision; text-rendering:geometricPrecision; image-rendering:optimizeQuality; fill-rule:evenodd; clip-rule:evenodd"
viewBox="0 0 6426.73 2137.38"
 xmlns:xlink="http://www.w3.org/1999/xlink"
 xmlns:xodm="http://www.corel.com/coreldraw/odm/2003">
 <defs>
  <style type="text/css">
   <![CDATA[
    .fil0 {fill:#FDFDFD;fill-rule:nonzero}
   ]]>
  </style>
 </defs>
 <g id="Layer_x0020_1">
  <metadata id="CorelCorpID_0Corel-Layer"/>
  <g id="_2223213389216">
   <g>
    <path class="fil0" d="M202.2 69.3c160.55,-74.17 345.89,-85.91 517.06,-45.47 72.22,17.43 147.61,34.85 208.08,80.41 54.05,38.58 84.33,106.51 79.58,172.39 4.39,63.36 -14.25,125.24 -39.88,182.36 -37.08,74.35 -89.36,140.14 -149.18,197.45 -49.3,51.62 -103.81,99.8 -168.11,131.76 -36.99,18.82 -80.78,29.08 -121.6,17.89 -58.14,-25.62 -118.34,-77.53 -109.12,-147.88 48.93,9.23 94.49,-13.7 130.92,-44.35 70.08,-58.89 135.49,-126.82 175.09,-210.41 23.21,-56.37 36.53,-117.87 28.51,-178.9 -15.18,-57.12 -75.57,-84.33 -128.86,-94.39 -118.07,-13.98 -236.6,22.92 -339.47,79.01 -72.03,39.6 -136.32,109.4 -135.3,196.15 7.92,74.82 39.22,144.06 70.82,211.34 83.49,174.71 200.62,332.75 265.47,516.32 12.2,39.79 27.12,83.96 9.23,124.49 -20.96,56.84 -81.06,85.36 -136.89,96.72 -86.93,13.79 -187.2,10.25 -254.56,-54.14 -65.51,-53.77 -86.94,-141.82 -86.11,-223.17 28.33,88.62 135.96,137.82 221.49,102.22 43.15,-12.11 72.03,-56.84 68.58,-100.91 0.47,-38.48 -17.89,-73.71 -33.45,-107.81 -69.61,-143.69 -143.31,-285.42 -216.37,-427.34 -30.66,-61.77 -53.77,-128.22 -58.15,-197.45l0 -33.17c1.95,-29.9 10.53,-58.8 20.03,-87.03 35.22,-76.04 108.28,-123 182.17,-156.08z"/>
    <path class="fil0" d="M3607.64 101.91c218.79,-130.72 496.85,-126.17 728.49,-32.23 70.35,28.79 129.71,91.69 136.98,169.59 9.87,78.92 -8.01,158.87 -43.8,229.22 -33.45,64.95 -78.27,123.84 -131.1,174.25 -66.72,68.67 -139.87,140.51 -235.39,165.03 -68.21,17.15 -132.12,-31.49 -166.89,-86.19 -7.18,-19.76 -11.37,-40.26 -10.25,-61.31 24.88,-2.06 51.34,2.41 74.17,-10.26 62.52,-30 110.42,-82.37 156.92,-132.59 73.24,-81.07 121.41,-193.81 100.73,-303.77 -20.87,-50.41 -75.57,-73.71 -125.7,-83.86 -118.25,-13.23 -236.78,23.11 -339.56,79.67 -67,37.36 -129.52,99.61 -133.43,180.58 -0.75,80.23 36.43,154.13 68.67,225.6 74.64,155.52 174.82,297.62 242.65,456.59 20.97,53.86 47.24,110.42 38.29,169.69 -15.28,63.36 -77.34,98.77 -137.07,110.89 -92.53,17.61 -201.46,10.8 -270.05,-61.97 -59.17,-53.67 -75.57,-135.86 -74.82,-212.45 28.33,94.11 148.26,139.21 233.8,94.95 27.57,-9.87 40.81,-37.27 53.57,-61.41 -0.55,-22.17 1.87,-44.63 -1.67,-66.53 -19.95,-61.31 -51.9,-117.69 -79.67,-175.65 -12.49,-24.69 -24.97,-49.48 -37.55,-74.17 -46.12,-87.41 -88.62,-176.77 -135.3,-263.99 -40.81,-87.59 -71.75,-190.47 -38.95,-285.6 20.41,-63.09 68.96,-113.5 126.92,-144.07z"/>
    <path class="fil0" d="M5209.24 80.57c-24.5,-41.37 26.37,-97.75 69.7,-75.57 31.49,8.01 35.13,43.79 33.17,70.72 -10.9,11.56 -22.09,22.83 -33.36,33.93 -25.71,1.58 -59.73,0.09 -69.51,-29.08z"/>
    <path class="fil0" d="M5072.55 72.47c41.27,-13.04 86.19,32.06 68.39,72.96 -13.04,35.88 -64.2,49.11 -89.83,18.55 -32.06,-26.28 -16.68,-80.41 21.44,-91.51z"/>
    <path class="fil0" d="M5375.95 101.73c12.67,-13.14 26.28,-31.22 46.78,-30.48 31.68,-4.74 62.52,24.42 59.26,56.57 1.21,37.82 -45.56,65.6 -78.18,47.05 -29.16,-11.37 -34.66,-45.65 -27.86,-73.14z"/>
    <path class="fil0" d="M4749.67 88.49c38.68,5.51 53.21,54.14 41.19,86.94 -47.71,170.62 -102.96,339.18 -144.06,511.57 -15.84,69.61 -40.16,136.7 -59.45,205.37 -2.05,13.24 -13.7,37.83 7.08,42.12 12.95,-1.77 25.16,-7.36 34.48,-16.77 72.02,-63.83 121.97,-147.32 175.45,-226.25 10.81,-19.38 35.41,-21.34 54.6,-27.11 60.38,-11.84 122.07,-16.69 183.67,-14.72 -28.8,64.76 -89.27,105.1 -133.06,158.59 -68.21,80.14 -143.31,158.6 -184.96,256.63 0.55,31.4 -5.97,65.22 10.33,94.02 20.04,46.59 60.19,80.41 104.09,103.81 5.21,2.42 15.65,7.17 20.88,9.5 32.89,10.25 67.27,11.1 101.56,10.44 -3.91,40.45 -45.93,54.51 -74.54,74.55 -34.57,6.99 -70.35,2.98 -102.78,-10.25 -114.99,-51.07 -187.01,-158.79 -251.5,-261.56 -10.06,48.73 -26.83,95.69 -38.95,143.87 -12.95,58.43 -52.92,112.94 -109.12,135.86 -32.89,9.23 -69.05,5.03 -98.49,-12.3 44.45,-232.12 128.31,-454.27 186.83,-682.94 32.33,-130.45 71.09,-259.23 109.86,-387.82 11.18,-32.89 12.2,-72.59 41.56,-95.79 40.06,-34.66 80.32,-69.51 125.32,-97.75z"/>
    <path class="fil0" d="M5236.45 183.54c13.33,0.09 26.84,0.18 40.26,0.18 5.78,6.25 11.56,12.4 17.43,18.55 -0.28,27.77 -12.3,53.03 -21.06,78.74 26.56,-13.89 47.43,-45.19 80.6,-41.38 19.29,13.05 36.16,48.37 10.72,63.55 -23.3,13.14 -50.69,9.23 -76.04,9.51 27.76,15.93 69.33,32.7 61.96,72.22 -14.06,8.19 -26.74,26.36 -45,21.98 -28.7,-15.28 -30.1,-51.99 -49.94,-74.92 -12.12,26.37 -16.59,61.59 -45.75,75.48 -23.3,2.05 -36.06,-22.37 -49.48,-37.36 16.58,-26.28 42.02,-44.64 69.88,-57.77 -25.62,-0.66 -53.77,5.77 -76.5,-9.51 -17.42,-6.71 -8.66,-27.68 -10.8,-41.85 6.71,-7.83 13.32,-15.65 20.12,-23.48 31.77,1.95 54.7,24.7 77.9,43.71 -7.83,-31.41 -28.42,-68.21 -4.29,-97.65z"/>
    <path class="fil0" d="M4966.13 271.23c17.8,-20.13 43.98,-42.31 72.4,-27.87 41.09,12.67 47.9,76.13 10.17,96.91 -26.94,23.02 -68.49,4.19 -81.16,-25.16 -1.49,-14.63 -1.21,-29.26 -1.4,-43.88z"/>
    <path class="fil0" d="M5441.92 296.47c-3.26,-39.13 42.77,-70.35 77.9,-52.27 17.33,5.13 24.61,22.92 33.64,36.81 -0.28,9.51 -0.38,18.91 -0.38,28.42 -11.27,21.62 -30.75,38.67 -55.35,42.31 -27.58,-4.85 -55.36,-25.07 -55.82,-55.26z"/>
    <path class="fil0" d="M5074.79 409.79c43.33,-14.07 86.19,36.8 64.67,77.25 -16.69,38.94 -78.37,42.4 -97.47,4.28 -21.34,-29.82 0.28,-71.47 32.81,-81.53z"/>
    <path class="fil0" d="M5376.14 438.12c18.36,-21.62 49.01,-43.33 76.78,-23.49 26.65,14.54 32.61,44.54 27.21,72.41 -16.03,14.82 -32.42,36.34 -57.3,31.49 -20.13,-0.09 -32.43,-18.82 -46.6,-30.28 -1.3,-16.69 -1.39,-33.46 -0.08,-50.13z"/>
    <g>
     <path class="fil0" d="M6161.28 474.64c62.06,-61.59 177.15,-54.79 230.16,15.46 29.81,36.72 43.24,87.87 30.47,133.99 -11.27,52.19 -52.83,95.61 -102.97,112.66 -75.85,25.71 -166.6,-14.16 -195.49,-89.92 -24.89,-58.33 -7.46,-128.77 37.82,-172.19zm-23.85 91.97l0 0c-12.67,61.41 26.47,121.88 81.35,147.13 81.25,34.86 185.99,-30 183.47,-119.83 6.44,-55.17 -31.21,-104.64 -78.08,-129.16 -76.22,-36.43 -176.77,17.8 -186.74,101.85z"/>
    </g>
    <path class="fil0" d="M5208.69 556.46c-21.15,-40.07 21.15,-90.67 64.76,-75.76 50.04,9.88 50.41,83.68 7.92,104.55 -27.49,4.39 -61.97,1.49 -72.68,-28.79z"/>
    <g>
     <path class="fil0" d="M6215.15 509.77c27.11,-6.15 54.79,-4.47 82.1,0.55 14.53,13.98 22.74,32.15 22.17,52.56 -8.66,10.06 -17.7,19.95 -27.21,29.16 20.22,23.49 22.83,55.26 29.35,84.25 -34.75,-5.68 -26.74,-49.67 -42.95,-73.62 -14.72,-0.93 -29.35,-1.67 -43.98,-2.14 0,23.67 0,47.33 0.09,71.1 -4.94,0.08 -14.73,0.37 -19.57,0.46 0,-54.14 0,-108.19 0,-162.32zm20.31 11.37l0 0c-0.84,21.05 -0.93,42.12 -1.02,63.08 13.13,0.09 26.47,0.28 39.88,0.38 9.32,-9.13 18.36,-18.55 27.4,-28.14 -6.62,-31.68 -37.83,-39.69 -66.25,-35.32z"/>
    </g>
    <g>
     <path class="fil0" d="M2442.95 716.35c72.78,-42.67 157.85,-62.81 241.71,-64.95 34.1,5.22 74.92,3.73 100.91,29.54 0.75,28.61 3.54,58.05 -4.28,85.92 -35.41,163.44 -144.24,311.6 -293.98,387.82 -35.41,18.91 -73.99,30.66 -111.54,44.17 8.94,30.47 21.05,64.29 51.06,80.05 47.99,24.31 103.43,11.83 154.02,4.28 25.16,-0.85 52.1,-17.9 75.02,-0.09 0,6.61 -0.19,19.75 -0.19,26.37 -37.55,34.75 -92.35,34.56 -139.41,46.77 -70.81,4.66 -146.94,6.99 -209.19,-32.8 -26.28,-13.7 -43.42,-38.29 -59.91,-61.87 -62.06,-121.32 -13.05,-260.26 42.02,-374.22 36.43,-68.3 88.9,-128.4 153.75,-170.99zm-32.34 255.78l0 0c-18.55,43.52 -35.13,89.46 -35.68,137.26 54.42,-14.54 101.37,-47.99 142.28,-85.73 79.21,-77.81 139.59,-180.49 151.06,-292.31 -124.4,20.96 -205.1,135.11 -257.65,240.78z"/>
    </g>
    <path class="fil0" d="M3208.07 669.95c73.06,-39.51 175.09,-13.51 216.83,59.45 38.76,70.16 39.88,155.89 21.25,232.21 -14.54,30.65 -29.44,63.92 -59.26,82.65 -25.16,19.01 -56.1,26.28 -86.57,31.03 30.47,-66.82 49.85,-144.44 24.78,-216.18 -15.1,-27.03 -36.72,-63.92 -73.8,-51.72 -52.46,16.59 -83.4,66.25 -114.8,108.09 -33.08,48.08 -74.64,91.04 -97.28,145.64 -43.8,97.01 -73.9,199.41 -108.19,300.04 -47.06,3.26 -94.3,2.33 -141.36,4.57 -3.26,-4.94 -9.87,-14.72 -13.24,-19.66 -2.51,-56.75 16.31,-111.35 31.78,-165.2 53.11,-173.32 103.06,-347.67 158.22,-520.33 10.06,-0.84 20.22,-1.58 30.37,-2.24 59.54,39.6 57.86,117.41 60.84,180.87 3.64,-6.43 10.99,-19.19 14.63,-25.62 33.83,-56.65 73.99,-114.8 135.77,-143.6z"/>
    <path class="fil0" d="M5896.08 649.45c40.07,7.54 84.05,10.44 116.01,39.05 -28.5,98.68 -74.64,191.67 -97.65,292.12 -17.51,65.41 -25.25,132.78 -33.17,199.97 -1.58,18.17 5.13,35.69 8.58,53.39 6.71,7.37 13.51,14.82 20.31,22.36 101.84,1.31 181.89,-72.68 261.66,-126.17 -36.25,92.91 -102.96,186.18 -204.44,211.9 -55.91,18.36 -122.35,4.1 -159.62,-43.05 -47.71,-59.73 -80.98,-139.5 -61.88,-216.46 4.11,-49.29 11.28,-98.21 18.83,-147.22 -103.15,126.45 -235.38,234.91 -297.16,390.06 -7.26,11.09 -14.44,22.08 -22.08,32.8 -6.71,-0.19 -20.32,-0.47 -27.11,-0.66 -25.16,-13.79 -45.01,-34.47 -63.46,-56.09 -72.78,51.06 -168.93,79.11 -255.04,45.75 -15.75,-9.04 -32.33,-17.05 -45.65,-29.64 -22.83,-27.57 -27.87,-64.67 -29.54,-99.14 1.86,-95.98 27.67,-189.16 49.94,-281.97 23.76,-91.7 48.92,-183.02 74.73,-274.14 40.62,-6.53 81.91,-3.82 121.51,7.17 5.13,2.71 15.47,8.11 20.59,10.81 3.17,7.83 6.33,15.65 9.6,23.48 -18.92,93.56 -59.36,180.68 -85.26,272.19 -23.49,72.49 -34.76,147.97 -44.18,223.26 -4.28,28.15 9.04,54.79 27.4,75.29 48.92,6.06 93.56,-21.8 127.2,-54.6 -5.97,-42.12 5.12,-84.42 15.28,-125.05 35.69,-130.45 79.58,-258.39 121.51,-386.88 -11.92,-3.54 -23.76,-7.18 -35.5,-10.81 13.7,-15.29 29.91,-28.04 47.71,-38.48 36.53,-5.04 71.1,12.39 96.45,37.74 20.22,48.64 6.33,101.47 -4.38,150.58 -19.02,77.44 -47.72,152.35 -79.59,225.41 56.93,-68.49 118.07,-133.25 175.75,-201.08 74.17,-77.15 142.2,-162.7 232.67,-221.87z"/>
    <path class="fil0" d="M963.79 658.02c18.17,0.09 36.25,2.33 52.55,10.91 8.01,62.43 -24.88,118.25 -49.48,172.95 -14.07,27.3 -27.11,55.16 -41.75,82.19 -10.99,21.89 -22.45,43.6 -33.26,65.69 -16.5,30.84 -31.41,62.52 -46.4,94.11 -21.63,50.23 -55.83,109.67 -23.68,162.98 22.45,4.1 46.97,4.74 67.18,-7.46 118.06,-71.28 218.61,-172.76 282.99,-295.2 39.52,-83.31 67,-171.73 106.97,-254.85 7.92,-13.79 22.09,-21.9 33.92,-31.87 65.51,0.84 119.46,67.47 103.53,132.04 -13.98,21.62 -24.32,45.19 -35.33,68.4 -30.09,85.36 -56.18,172.19 -81.99,259.04 -6.15,36.81 -20.5,84.89 12.49,113.4 26.74,25.07 65.13,9.41 93.64,-4.1 61.04,-28.7 94.68,-91.6 121.24,-150.3 55.82,-135.77 87.59,-279.73 131.76,-419.41 29.44,2.98 55.07,18.08 73.52,40.81 70.54,-50.78 162.05,-42.31 244.05,-38.21 78.37,8.48 160.46,45.57 197.17,119.28 43.98,87.03 24.42,187.1 1.87,277.21 -25.63,94.11 -74.74,186.46 -155.8,243.95 -82.19,59.17 -194.38,78.55 -290.17,44.54 -38.58,-10.62 -62.81,-50.13 -60.76,-88.99 4.94,-26.74 14.53,-52.27 23.95,-77.71 1.59,49.01 47.9,94.49 98.31,84.33 118.52,-10.81 204.44,-111.54 248.61,-214.7 27.21,-69.69 46.4,-154.95 4.38,-222.7 -30,-47.52 -89.45,-60.84 -142.01,-55.35 -39.32,-0.19 -75.57,21.15 -101.29,49.76 -38.11,38.58 -67,85.07 -92.63,132.59 -50.78,114.81 -82.84,236.6 -116.38,357.26 -54.14,189.16 -99.24,380.66 -150.21,570.56 -35.87,-6.99 -72.49,-20.69 -96.91,-49.11 -23.02,-32.43 -25.35,-76.22 -13.7,-113.32 38.95,-136.51 82.47,-271.62 125.9,-406.74 -68.21,32.06 -143.69,63.64 -220.38,46.68 -26.64,-12.11 -48.08,-32.7 -60.1,-59.45 -9.23,-40.15 -19.75,-80.13 -23.48,-121.23 -41.93,52.18 -89.64,100.91 -148.9,133.44 -72.78,37.36 -157.67,64.76 -239.76,46.21 -34.66,-9.69 -72.4,-24.04 -90.38,-57.77 -21.15,-47.34 -9.97,-100.91 2.71,-149 39.51,-131.76 109.86,-251.59 183.75,-366.58 30.09,-44.81 54.98,-97.18 104.28,-124.31z"/>
    <g>
     <path class="fil0" d="M2075.54 1940.86c46.59,-10.99 126.45,-21.89 138.84,41 -1.68,6.53 -5.04,19.57 -6.61,26.09 -8.01,6.8 -16.03,13.51 -24.04,20.32 11.56,10.52 22.83,21.43 33.92,32.61 0.09,13.04 0.19,26.18 0.47,39.32 -9.41,11.19 -19.76,21.43 -31.22,30.56 -36.53,9.51 -74.08,6.81 -110.52,-1.67 -1.95,-62.71 -0.65,-125.52 -0.84,-188.23zm45.1 19.3l0 0c-2.61,20.12 -1.48,40.53 -1.77,60.75 23.57,1.77 42.95,-7.54 54.14,-28.7 -4.19,-9.69 -8.39,-19.38 -12.67,-28.97 -13.04,-2.89 -26.46,-8.11 -39.69,-3.07zm-0.84 78.46l0 0c-0.75,22.73 -0.84,45.46 -0.65,68.21 18.91,3.44 37.27,-1.21 52.92,-12.21 -0.28,-11.56 -0.93,-23.1 -1.86,-34.56 -10.91,-17.33 -32.89,-16.5 -50.41,-21.43z"/>
    </g>
    <path class="fil0" d="M2275.78 1935.09c34.47,0 69.05,0 103.62,0 -0.09,7.54 -0.19,22.63 -0.19,30.19 -18.36,0 -36.62,0 -54.98,0 0,17.43 0,34.85 0.09,52.27 16.68,0 33.36,0 50.23,0 -0.09,7.45 -0.19,22.27 -0.28,29.73 -16.77,-0.09 -33.45,0 -50.23,0 0.19,18.55 0.28,37.18 0.28,55.72 18.36,0 36.62,0 54.98,0 0,7.54 -0.09,22.64 -0.09,30.09 -34.48,0 -68.87,0 -103.24,0 -0.09,-65.96 0.18,-131.95 -0.19,-198z"/>
    <g>
     <path class="fil0" d="M2481.44 1934.71c15.46,2.42 34.75,-4.57 47.8,5.78 22.45,63.64 40.44,128.86 63.46,192.52 -15.93,0.08 -31.77,0.18 -47.61,0.37 -4.85,-13.51 -9.6,-27.11 -13.6,-40.91 -19.85,0.19 -39.79,0.19 -59.64,0.09 -4.19,13.6 -8.76,27.11 -13.42,40.62 -13.32,0 -26.55,0 -39.88,0.09 18.26,-67 43.14,-132.04 62.9,-198.57zm-3.92 129.71l0 0c16.12,0.27 32.34,0.65 48.55,1.31 -9.32,-30.66 -17.15,-61.78 -24.42,-93 -4.75,31.31 -14.16,61.69 -24.14,91.7z"/>
    </g>
    <path class="fil0" d="M2637.52 1935.09c15.75,0 31.49,0 47.24,0 0.38,47.24 -0.74,94.49 0.38,141.63 -2.14,15.65 14.82,21.34 24.69,29.07 5.21,-3.63 15.75,-10.9 20.97,-14.53 1.12,-51.99 0.55,-104.08 0.37,-156.17 15.19,0 30.48,0 45.66,0 -0.65,51.99 1.4,104.08 -0.84,155.98 -17.43,60.38 -117.78,62.52 -135.77,1.68 -5.68,-52.18 -0.65,-105.11 -2.7,-157.66z"/>
    <path class="fil0" d="M2832.73 1935.09c39.79,0 79.58,0 119.37,0 -0.19,7.64 -0.38,22.74 -0.55,30.28 -8.77,-0.09 -26.47,-0.28 -35.32,-0.38 0,56 0,112.01 0,168.01 -15.47,0 -30.84,0 -46.32,0.08 0,-56 0.09,-111.91 0,-167.91 -12.39,0.09 -24.78,0.09 -37.18,0.19 0,-7.54 0,-22.74 0,-30.28z"/>
    <path class="fil0" d="M2989.37 1935.17c16.22,-0.08 32.43,-0.08 48.65,-0.08 10.16,24.6 18.54,50.03 30.37,73.99 9.69,-24.61 19.75,-49.02 28.61,-73.99 14.99,0 30,0 45.1,0.08 -10.9,23.3 -21.52,46.78 -32.43,70.17 -26.46,37.92 -21.05,84.14 -20.58,127.75 -15.66,0 -31.31,0 -46.97,0 0.09,-27.02 -0.09,-54.14 0.38,-81.16 -3.82,-8.85 -7.74,-17.62 -11.74,-26.37 -14.17,-30.01 -27.3,-60.38 -41.38,-90.39z"/>
    <path class="fil0" d="M3321.19 1950.08c23.49,-24.31 59.83,-16.96 89.37,-11.83 -0.56,12.11 1.49,37.46 -19.19,28.61 -21.43,-7.27 -44.17,9.69 -47.52,31.12 -8.11,30.75 -8.67,68.96 13.13,94.21 13.14,16.22 36.25,-0.27 50.13,12.12 1.49,6.14 4.38,18.36 5.87,24.5 -30.47,10.72 -66.63,13.13 -92.72,-9.04 -39.69,-46.68 -41.37,-124.21 0.93,-169.69z"/>
    <path class="fil0" d="M3467.58 1935.09c15.37,0 30.84,0 46.31,0 -0.09,56 0,112 0,167.91 18.26,0 36.62,0 54.98,0 0,7.54 0,22.64 0,30.09 -33.74,0 -67.47,0 -101.1,0 -0.09,-65.96 0.27,-131.95 -0.19,-198z"/>
    <path class="fil0" d="M3624.03 1935.09c15.75,0 31.5,0 47.34,0 -0.19,66.06 -0.09,132.04 -0.09,198 -15.75,0 -31.5,0 -47.25,0.09 0,-66.06 0,-132.04 0,-198.1z"/>
    <path class="fil0" d="M3736.59 1935.09c14.54,0 29.08,0 43.8,0.08 21.24,39.33 46.12,76.6 67.65,115.83 0.84,-38.58 0.28,-77.26 0.38,-115.92 13.23,0 26.56,0 39.98,0 -0.19,66.15 -0.09,132.22 -0.09,198.29 -12.3,-0.28 -24.5,-0.55 -36.72,-0.84 -24.23,-45.85 -53.85,-88.52 -77.25,-134.83 3.54,45 1.59,90.19 2.05,135.38 -13.32,0 -26.55,0.09 -39.79,0.19 0,-66.07 0,-132.13 0,-198.19z"/>
    <path class="fil0" d="M3957.16 1935.09c15.66,0 31.5,0 47.25,0 -0.38,66.06 -0.09,132.04 -0.19,198 -15.65,0 -31.4,0 -46.97,0 0,-65.96 0.09,-131.95 -0.09,-198z"/>
    <path class="fil0" d="M4095.63 1949.81c23.76,-24.04 60.1,-16.59 89.82,-11.46 -1.77,10.52 -3.53,20.96 -5.21,31.49 -17.61,-7.64 -35.22,-4.28 -51.9,3.07 -16.78,34.86 -21.52,78.83 -2.14,113.49 10.9,19.11 34.94,14.36 52.83,11.65 2.42,10.34 4.85,20.78 7.37,31.13 -30.66,10.53 -67.18,12.49 -92.91,-10.53 -38.94,-47.24 -40.15,-123.38 2.15,-168.84z"/>
   </g>
  </g>
 </g>
</svg>
