<?xml version="1.0" encoding="UTF-8"?>
<!DOCTYPE svg PUBLIC "-//W3C//DTD SVG 1.1//EN" "http://www.w3.org/Graphics/SVG/1.1/DTD/svg11.dtd">
<!-- Creator: CorelDRAW 2021.5 -->
<svg xmlns="http://www.w3.org/2000/svg" xml:space="preserve" width="92.183mm" height="32.072mm" version="1.1" style="shape-rendering:geometricPrecision; text-rendering:geometricPrecision; image-rendering:optimizeQuality; fill-rule:evenodd; clip-rule:evenodd"
viewBox="0 0 3913.19 1361.47"
 xmlns:xlink="http://www.w3.org/1999/xlink"
 xmlns:xodm="http://www.corel.com/coreldraw/odm/2003">
 <defs>
  <style type="text/css">
   <![CDATA[
    .fil0 {fill:white;fill-rule:nonzero}
   ]]>
  </style>
 </defs>
 <g id="Layer_x0020_1">
  <metadata id="CorelCorpID_0Corel-Layer"/>
  <g id="_2222899202560">
   <g>
    <path class="fil0" d="M3875.51 0l0.57 0c20.14,32.89 35.08,69.93 37.11,108.82l0 17.83c-2.93,42.72 -22.81,82.4 -49.61,115.11 -25.09,31.2 -55.38,57.64 -85.91,83.34 -27.62,23.25 -56.42,45.45 -80.49,72.52 -11.47,-19.34 -21.73,-39.54 -28.41,-61.04 -9.7,-30.43 -12.09,-63.45 -4.42,-94.59 8.54,-36.01 28.78,-68.07 52.77,-95.81 25.25,-29.04 54.46,-54.29 83.99,-78.87 25.56,-21.54 52.01,-42.34 74.39,-67.3z"/>
    <path class="fil0" d="M3328.07 161.63c38.85,-11.41 80.75,-16.59 120.47,-6.44 38.44,9.42 71.91,33.65 97.02,63.76 42.27,50.07 66.5,111.75 94.57,170.16 7.95,16.42 16.41,32.65 26.64,47.79 -42.11,12.37 -88.11,17.32 -130.54,3.59 -36.13,-11.29 -66.77,-35.79 -90.37,-64.87 -43.39,-53.3 -67.24,-118.52 -97.75,-179.27 -5.97,-11.98 -12.78,-23.5 -20.04,-34.71z"/>
    <path class="fil0" d="M3832.65 343.28c14.79,-12.7 29.39,-25.76 42.13,-40.58 22.03,35.73 38.17,76.64 37.5,119.17 -0.16,38.5 -15.23,75.57 -37.24,106.68 -37.99,53.91 -91.79,93.22 -141.2,135.82 -13.14,11.43 -26.13,23.17 -37.4,36.48 -21.89,-35.38 -37.95,-75.9 -37.5,-118.03 -0.18,-38.11 14.43,-74.98 35.99,-105.96 36.75,-53.11 89.17,-92.06 137.72,-133.58z"/>
    <path class="fil0" d="M2997.51 341.49c43.55,-0.73 87.11,-0.12 130.66,-0.33 -0.08,35.32 -0.08,70.66 0,106 -44.78,0 -89.55,0.04 -134.33,-0.04 -4.2,0.04 -9.01,-0.02 -12,3.38 -3.3,3.91 -3.38,9.33 -3.51,14.18 -0.04,33.67 0.06,67.34 -0.04,101.01 41.19,-0.02 82.36,-0.02 123.55,0.02 -0.14,32.75 -0.1,65.51 -0.04,98.26 -41.09,-0.1 -82.18,0.19 -123.26,-0.14 -0.47,133.54 -0.06,267.08 -0.2,400.59 -36.83,-0.02 -73.66,0 -110.49,0 -0.2,-112.97 -0.39,-225.95 0,-338.94 -0.7,-20.52 0.57,-41.05 -0.35,-61.55 -25.58,0.1 -51.16,-0.04 -76.74,0.06 0.19,-32.81 -0.24,-65.65 0.22,-98.46 25.56,0.34 51.12,0.06 76.67,0.16 0.7,-33 -0.77,-65.99 0.41,-98.99 1.32,-33.98 8.72,-71.24 35.02,-95.1 25.46,-23.07 61.33,-28.59 94.43,-30.12z"/>
    <path class="fil0" d="M-0 367.74c37.07,-0.87 74.19,-0.1 111.26,-0.39 -0.04,97.81 0.02,195.64 -0.02,293.47 89.49,-0.02 178.99,0 268.48,-0.02 0,-97.81 0.04,-195.64 -0.02,-293.45 36.91,0.04 73.84,0.04 110.75,0 -0.02,232.28 0,464.57 -0.02,696.86 -36.89,0.12 -73.8,0.04 -110.69,0.06 -0.04,-100.93 -0.02,-201.83 0,-302.74 -89.51,-0.02 -179.01,0 -268.5,-0.02 0.02,100.91 0,201.82 0.02,302.72 -37.1,0.06 -74.17,0.06 -111.26,0.02l0 -696.51z"/>
    <g>
     <path class="fil0" d="M1409.95 367.27c36.89,0.26 73.76,-0.04 110.65,0.16 0.2,99.77 -0.04,199.55 0.12,299.34 2.87,0.02 5.79,0.06 8.7,0.12 9.07,-33.32 26.13,-64.91 51.69,-88.47 28.04,-26.56 65.91,-42.23 104.51,-43.53 34.83,-1.06 70.23,5.83 101.35,21.81 28.7,14.51 53.3,36.63 71.7,62.94 20.93,29.74 34.12,64.41 41.17,99.95 8.36,42.23 7.89,85.77 3.24,128.42 -7.01,59.72 -25.48,120.21 -64.35,167.19 -23.05,28.02 -54.29,49.69 -89.43,59.41 -36.58,10.17 -76.57,8.8 -112.03,-5.03 -31.67,-12.25 -59.11,-34.69 -78.04,-62.81 -14.84,-21.5 -24.19,-46.29 -29.8,-71.68 -2.92,0.02 -5.83,0.06 -8.72,0.12 -0.12,43.07 0,86.13 -0.06,129.22 -36.95,0.04 -73.9,0 -110.83,0.02 0.08,-232.39 -0.18,-464.77 0.12,-697.16zm239.74 275.98l0 0c-30.85,6.99 -55.74,30.08 -70.86,57.13 -22.24,39.58 -28.19,86.4 -24.44,131.13 3.36,34.92 13.66,70.07 34.75,98.54 15.86,21.48 39.13,38.44 65.85,42.86 28.94,5.52 59.88,-3.43 82.07,-22.64 25.58,-21.83 40.72,-53.6 48.41,-85.87 9.52,-41.13 8.83,-84.79 -3.01,-125.39 -9.23,-30.98 -26.25,-60.84 -52.93,-79.93 -22.72,-16.43 -52.56,-22.32 -79.84,-15.83z"/>
    </g>
    <g>
     <path class="fil0" d="M2467.19 368.62c36.85,0.02 73.72,0.02 110.57,0 0.16,232.32 0.02,464.67 0.08,697 -52.85,-0.08 -105.7,-0.02 -158.52,-0.04 -21.22,-0.14 -43.07,-1.89 -62.69,-10.58 -15.32,-6.75 -27.55,-19.77 -33.71,-35.3 -9.62,-23.95 -10.09,-50.28 -9.92,-75.72 -3.08,-0.02 -6.13,0 -9.15,0 -13.88,53.34 -53.73,98.89 -104.72,119.76 -30.08,12.74 -63.34,16.84 -95.77,14.29 -31.86,-1.75 -63.86,-7.83 -92.96,-21.22 -25.64,-11.8 -48.71,-30.14 -63.65,-54.3 -19.1,-30.69 -24.62,-68.44 -19.87,-103.9 3.85,-28.84 18.24,-55.97 39.83,-75.45 24.25,-22.42 54.99,-36.38 86.15,-46.35 50.08,-16.1 102.76,-20.5 154.47,-28.57 17.14,-2.59 34.35,-4.83 51.48,-7.58 -0.24,-14.51 0.2,-29.01 -0.2,-43.49 -0.77,-16.25 -10.01,-31.29 -23.3,-40.4 -18.75,-13 -42.25,-17.02 -64.65,-16.59 -27.43,-0.29 -55.99,6.46 -77.73,23.82 -12.29,9.6 -21.22,23.03 -26.19,37.73 -38.05,-7.25 -76.13,-14.37 -114.2,-21.5 5.07,-32.41 20.5,-63.16 43.66,-86.42 21.77,-22.21 49.71,-37.69 79.1,-47.32 36.5,-12 75.31,-15.47 113.55,-13.76 48.61,2.5 98.56,18.22 133.99,52.81 21.91,21.05 36.89,48.97 42.92,78.73 5.06,22.83 3.32,46.33 3.63,69.52 0,66.5 -0.02,133.03 0,199.53 0.22,7.93 0.92,16.92 6.93,22.81 4.28,4.26 10.52,5.4 16.35,5.28 24.85,-0.06 49.69,0.22 74.53,0.22 -0.02,-197.66 -0.04,-395.34 0.02,-593.01zm-347.48 483.46l0 0c-22.05,4.02 -44.8,10.56 -62,25.62 -14.64,12.74 -21.89,34.14 -16.1,52.91 4.83,14.88 18.55,24.64 32.51,30.18 28.59,11.21 60.67,10.7 90.02,2.77 30.71,-7.97 59.88,-25.88 76.71,-53.34 14.43,-22.52 18.1,-49.95 16.78,-76.2 -45.96,6.11 -92.02,11.45 -137.92,18.06z"/>
    </g>
    <path class="fil0" d="M2633.74 376.71c36.85,-0.02 73.7,0.02 110.57,-0.02 0.04,44.04 -0.06,88.07 0.04,132.09 -36.89,-0.02 -73.78,-0.02 -110.67,0.02 0.1,-44.04 0.02,-88.07 0.06,-132.09z"/>
    <g>
     <path class="fil0" d="M594.95 607.26c36.97,-39.75 88.72,-64.75 142.57,-70.62 44.96,-5.61 91.96,1.14 132.21,22.46 35.4,18.39 64.94,47.1 86.36,80.61 23.68,36.91 38.01,79.28 44.76,122.49 4.67,28.51 5.03,57.46 4.67,86.28 -120.78,-0.1 -241.58,0.14 -362.36,-0.12 -0.25,33.45 9.45,68.87 34.16,92.61 23.87,23.5 58.37,32.32 91.06,32.44 29.29,0.63 59.92,-5.73 83.56,-23.87 10.91,-8.17 19.81,-18.73 26.9,-30.31 1.04,-2.87 4.2,-0.73 6.16,-0.47 33.65,10.32 67.4,20.26 101.07,30.47 -25.19,56.52 -75.74,100.15 -134.38,119.15 -50.71,16.71 -106.96,17.46 -157.69,0.43 -54.44,-18.1 -100.22,-58.07 -128.75,-107.45 -29.27,-50.08 -42.43,-108.72 -41.02,-166.49 0.59,-68.05 23.42,-137.62 70.72,-187.61zm78.3 72l0 0c-20.48,21.2 -30.17,50.95 -30.29,80.08 81.79,-0.04 163.6,0 245.39,-0.02 0.16,-29.35 -9.64,-59.33 -30.17,-80.75 -22.81,-24.48 -56.82,-36.4 -89.86,-35.97 -34.66,-0.37 -70.86,10.96 -95.08,36.66z"/>
    </g>
    <g>
     <path class="fil0" d="M3248.2 557.94c39.27,-18.67 83.68,-25.86 126.93,-22.22 42.72,3.65 84.24,20.42 117.23,47.86 46.63,38.19 75.79,94.32 89.15,152.43 8.85,36.77 10.29,74.76 10.01,112.42 -120.9,0.04 -241.78,0.02 -362.69,0.02 -0.24,35.42 10.91,73.17 38.77,96.71 31.31,26.64 75.35,31.61 114.79,26.54 34.18,-4.2 66.56,-23.87 83.4,-54.32 35.36,10.6 70.72,21.17 106.07,31.9 -14.41,31.4 -36.06,59.53 -63.28,80.89 -66.2,52.5 -160.71,65.36 -239.17,34.85 -52.71,-20.44 -95.98,-61.6 -122.59,-111.08 -22.44,-41.25 -34.34,-87.86 -36.59,-134.66 -3.89,-70.48 14.19,-144.16 59.43,-199.5 21.22,-26.05 48.18,-47.43 78.55,-61.85zm16.16 116.07l0 0c-23.85,21.38 -35.67,53.68 -35.56,85.31 81.81,0.02 163.6,-0.02 245.41,0.02 -0.16,-23.92 -6.28,-48.22 -19.99,-68.03 -18.14,-27.01 -49.1,-43.62 -81.04,-47.55 -38.15,-4.59 -79.81,3.73 -108.81,30.25z"/>
    </g>
    <path class="fil0" d="M1226.99 591.18c20.73,-16.45 46.33,-28.31 73.19,-28.23 20.83,-0.12 41.68,0.06 62.51,-0.08 -0.02,35.91 0,71.8 -0.02,107.71 -28.27,0.45 -56.58,-0.04 -84.85,0.2 -29.45,0.49 -57.39,15.41 -76.51,37.4 -25.03,28.66 -38.68,65.69 -44.21,102.95 -5.03,29 -2.71,58.51 -3.24,87.78 0,55.17 0.02,110.32 0,165.5 -36.95,0.04 -73.88,0 -110.81,0.02 0,-163.74 -0.02,-327.5 0,-491.25 36.93,0.08 73.88,-0.06 110.81,0.06 -0.04,35.5 0.1,71.01 -0.06,106.53 3.12,-0.08 6.26,-0.14 9.39,-0.2 13.8,-33.91 35.08,-65.38 63.79,-88.39z"/>
    <path class="fil0" d="M2633.7 573.18c36.87,0 73.74,0.1 110.61,-0.06 0.02,163.78 -0.02,327.55 0.02,491.33 -36.89,-0.04 -73.76,-0.02 -110.61,-0.02 0.02,-163.74 0.04,-327.5 -0.02,-491.25z"/>
    <path class="fil0" d="M3354.97 1152.97c7.95,0.14 15.92,0.14 23.91,0.02 0.16,10.68 -0.02,21.36 0.18,32.04 -8.21,0.04 -16.41,0.06 -24.58,-0.02 0.16,-10.68 -0.41,-21.38 0.49,-32.04z"/>
    <path class="fil0" d="M2055.73 1153.05c8.11,0.04 16.22,0.04 24.35,-0.06 0.25,10.68 0.04,21.38 0.19,32.08 -8.21,-0.02 -16.41,-0.02 -24.58,0 0.04,-10.68 0.02,-21.36 0.04,-32.02z"/>
    <path class="fil0" d="M3423.19 1164.85c10.56,-12.39 28.63,-13.04 43.43,-9.68 -0.06,7.06 -0.06,14.11 -0.04,21.18 -8.27,-1.06 -19.34,-2.85 -24.8,5.16 -4.13,7.93 -1.83,17.32 -2.39,25.9 9.07,-0.04 18.16,-0.02 27.25,-0.02 -0.08,6.83 -0.08,13.68 0,20.52 -9.11,-0.02 -18.2,-0.02 -27.27,-0.04 0.06,28.11 0,56.19 0.04,84.28 -8.25,-0.08 -16.49,-0.06 -24.7,0.02 0.04,-28.11 -0.04,-56.19 0.06,-84.3 -7.2,0.04 -14.35,0.02 -21.48,-0.02 -0.08,-6.83 -0.02,-13.64 0.1,-20.44 7.09,-0.04 14.23,-0.04 21.36,0.02 -0.06,-14.41 -1.71,-30.84 8.44,-42.58z"/>
    <path class="fil0" d="M1952.17 1154.74c8.68,-0.02 17.39,0.02 26.11,-0.16 0.35,44.37 0.04,88.74 0.14,133.09 21.08,-0.04 42.15,0 63.2,-0.02 -0.02,8.15 0,16.33 0.02,24.48 -29.82,-0.08 -59.66,0.02 -89.47,-0.04 -0.02,-52.44 0,-104.9 0,-157.35z"/>
    <g>
     <path class="fil0" d="M2845.54 1154.74c8.15,-0.04 16.33,-0.04 24.5,0 -0.1,21.93 0.2,43.86 -0.16,65.81 17.35,-21.48 53.93,-20.95 71.68,-0.31 10.97,12.25 14.51,29.45 13.21,45.47 -1,18.34 -11.56,36.56 -28.62,44.29 -18.53,8.99 -43.27,5.69 -56.25,-11.17 0.06,4.4 0.12,8.83 0.18,13.25 -8.19,0 -16.35,0.02 -24.5,0.04 0.02,-52.46 0.1,-104.92 -0.04,-157.38zm43.41 73.64l0 0c-23.48,8.03 -26.76,43.76 -8.01,58.37 10.48,7.99 26.21,8.29 36.83,0.41 14.47,-10.88 16.35,-33.45 6.75,-48.08 -7.46,-11.35 -23.11,-15.45 -35.56,-10.7z"/>
    </g>
    <path class="fil0" d="M3306.36 1154.74c8.21,-0.04 16.45,-0.02 24.72,-0.04 -0.06,52.48 0.02,104.98 -0.04,157.47 -8.23,-0.1 -16.45,-0.08 -24.64,-0.04 0,-52.46 0.1,-104.92 -0.04,-157.38z"/>
    <path class="fil0" d="M3184.85 1175.65c8.26,-0.02 16.55,-0.02 24.85,0 -0.08,10.56 -0.02,21.13 -0.04,31.71 7.97,0.02 15.94,0.02 23.95,-0.02 -0.06,6.87 -0.06,13.72 -0.02,20.59 -8.01,-0.08 -16,-0.08 -23.99,0.08 0.2,15.27 -0.08,30.55 0.1,45.84 0.33,5.76 0.86,13.1 6.72,16.12 6.63,2.53 13.94,0.86 20.87,0.55 -0.02,7.25 0,14.51 0,21.77 -12.72,1.06 -26.7,3.34 -38.4,-3.12 -10.17,-5.89 -13.55,-18.32 -13.92,-29.31 -0.34,-17.35 -0.04,-34.67 -0.12,-52.01 -5.83,0.02 -11.61,0.04 -17.38,0.06 0.02,-6.85 0.02,-13.72 0,-20.57 5.77,0.02 11.55,0.04 17.37,0.08 0.02,-10.6 0,-21.2 0.02,-31.77z"/>
    <g>
     <path class="fil0" d="M2212.08 1217.53c13.02,-12.25 32.34,-14.82 49.34,-11.6 14.65,3 27.74,13.35 33.26,27.37 4.81,10.96 4.04,23.19 3.24,34.83 -25.99,-0.14 -51.95,0.1 -77.94,-0.12 0.55,9.17 5.14,18.71 14.06,22.34 12.9,5.34 31.26,4.61 38.93,-8.87 8.32,-0.14 16.63,-0.1 24.95,-0.02 -2.55,10.62 -9.13,20.16 -18.67,25.62 -16.92,9.81 -38.74,10.34 -56.36,2.12 -15.14,-7.14 -24.66,-22.93 -26.6,-39.22 -2.51,-18.53 1.45,-39.44 15.77,-52.46zm17.77 11.74l0 0c-6.48,4.42 -9.4,12.17 -9.93,19.75 18.2,-0.2 36.4,0.04 54.63,-0.12 -0.63,-8.09 -3.18,-17.14 -10.88,-21.2 -10.4,-5.34 -24.07,-5.06 -33.81,1.57z"/>
    </g>
    <g>
     <path class="fil0" d="M2516.2 1206.1c16.22,-3.1 34.28,-1.53 48.06,8.35 29.51,20.58 29.1,71.4 -1.06,91.23 -20.52,13.17 -49.75,12.45 -68.99,-2.83 -24.8,-20.38 -25.5,-62.94 -1.98,-84.56 6.69,-6.14 15.1,-10.23 23.97,-12.19zm3.67 22.09l0 0c-20.57,6.64 -25.01,34.57 -14.78,51.44 10.6,17.61 39.99,17.77 50.85,0.33 7.44,-12.15 7.34,-28.78 -0.22,-40.85 -7.44,-11.58 -23.28,-15.27 -35.85,-10.92z"/>
    </g>
    <g>
     <path class="fil0" d="M2972.07 1227.5c17.96,-30.17 69.01,-30.98 87.41,-0.88 7.87,12.31 7.95,27.44 6.69,41.5 -26.13,0.12 -52.26,-0.35 -78.37,0.24 1.39,8.34 4.73,17.32 12.9,21.22 13.07,6.38 32.41,5.75 40.54,-8.09 8.26,-0.12 16.55,-0.1 24.85,-0.02 -2.69,12.15 -11.23,22.5 -22.48,27.7 -16.71,7.76 -37.09,7.75 -53.6,-0.53 -14.09,-7.07 -23.05,-21.79 -25.31,-37.11 -1.98,-14.92 -0.69,-30.96 7.38,-44.02zm21.99 5.44l0 0c-4.05,4.28 -4.99,10.27 -6.32,15.77 18.32,0.51 36.65,0.14 54.99,0.2 -0.49,-8.64 -3.75,-18.22 -12.25,-21.95 -11.74,-5.06 -27.55,-4.04 -36.42,5.97z"/>
    </g>
    <path class="fil0" d="M3087.21 1216.13c13.43,-12.86 34.38,-13.64 51.38,-8.66 13.21,3.71 22.66,16.31 22.44,30.08 -8.03,0.02 -16.06,0.04 -24.05,-0.04 -0.84,-14.41 -20.81,-18.12 -30.41,-10.07 -5.22,4.06 -3.65,12.56 1.96,15.47 13.92,7.23 31.45,6.6 43.66,17.3 14.27,12.25 12.31,38.09 -3.97,47.73 -14.45,8.52 -32.89,8.91 -48.47,3.38 -13.19,-4.67 -24.66,-16.94 -24.01,-31.59 8.09,0.04 16.2,-0.22 24.29,0.43 1.75,13.45 18.87,18 29.84,13.27 7.48,-2.94 9.35,-15.25 2,-19.26 -12.84,-6.65 -28.39,-6.22 -40.72,-14.05 -14.31,-9.29 -16.57,-32.36 -3.93,-44z"/>
    <g>
     <path class="fil0" d="M3477.4 1227.28c18.14,-30.06 69.36,-30.7 87.48,-0.31 7.64,12.23 7.84,27.23 6.5,41.13 -26.05,0.04 -52.07,-0.08 -78.1,0.06 0.96,8.54 4.5,17.47 12.68,21.46 13.07,6.32 32.43,5.68 40.5,-8.15 8.21,-0.1 16.45,-0.08 24.68,0.02 -2.51,12.66 -11.76,23.17 -23.48,28.25 -17.43,7.5 -38.65,7.07 -55.13,-2.63 -13.06,-7.68 -21.01,-22.18 -22.77,-36.99 -1.59,-14.57 -0.37,-30.17 7.65,-42.84zm21.83 5.77l0 0c-4.06,4.26 -5.12,10.23 -5.99,15.81 18.24,0.22 36.46,-0.04 54.71,0.17 -0.25,-9.15 -4.3,-18.98 -13.31,-22.54 -11.59,-4.42 -26.84,-3.3 -35.4,6.56z"/>
    </g>
    <path class="fil0" d="M2055.4 1207.34c8.15,0.04 16.31,0.02 24.5,0.06 -0.16,34.93 0,69.86 -0.1,104.78 -8.13,-0.12 -16.26,-0.12 -24.4,-0.02 0.02,-34.95 0.06,-69.89 0,-104.82z"/>
    <path class="fil0" d="M2088.57 1207.38c8.86,0 17.73,-0.02 26.6,0 8.7,21.59 17.53,43.11 26.05,64.75 1.24,1.41 0.84,5.63 3.35,5.44 9.6,-23.33 18.87,-46.84 28.43,-70.19 8.85,-0.02 17.71,-0.02 26.6,0.02 -15.29,34.83 -30.35,69.76 -45.49,104.66 -6.71,0.04 -13.41,0.04 -20.1,0 -15.1,-34.92 -30.19,-69.83 -45.43,-104.68z"/>
    <path class="fil0" d="M2363.69 1207.14c8.24,0.02 16.47,0.02 24.72,0.04 -0.08,18.81 -0.04,37.62 -0.06,56.45 0.1,8.69 0.87,18.77 8.03,24.77 9.74,7.68 25.97,5.99 33.39,-4.18 5.38,-6.95 6.46,-16.1 6.4,-24.62 -0.16,-17.49 -0.06,-34.97 -0.1,-52.44 8.21,0.02 16.43,0.02 24.66,-0.02 0.04,35.16 -0.02,70.31 0.06,105.48 -0.02,10.74 -2.22,21.83 -8.4,30.84 -6.79,10.49 -18.92,15.96 -30.86,18.02l-17.59 0c-12.17,-0.9 -25.11,-5.01 -32.85,-15 -5.26,-6.38 -6.66,-14.77 -7.85,-22.68 8.32,-0.08 16.63,-0.08 24.97,0.04 1.51,5.57 3.12,12.17 8.91,14.9 10.84,5.17 26.41,4.03 33.67,-6.58 6.77,-10.03 5.15,-22.72 5.73,-34.16 -11.76,18 -38.38,21.81 -56.05,10.76 -12.15,-7.91 -16.65,-23.15 -16.75,-36.93 -0.1,-21.56 0,-43.11 -0.02,-64.67z"/>
    <path class="fil0" d="M2599.58 1207.34c8.27,0.04 16.57,0.04 24.87,0 0,20.83 -0.06,41.66 0,62.49 -0.08,8.85 3.06,19.51 12.35,22.62 9.21,2.73 20.65,1.57 27.54,-5.75 5.26,-5.56 6.6,-13.51 6.66,-20.87 0,-19.51 0,-38.99 -0.02,-58.48 8.21,0.02 16.45,0.02 24.68,-0.02 -0.06,34.94 -0.02,69.87 -0.02,104.8 -8.24,-0.08 -16.45,-0.08 -24.66,0 -0.04,-4.69 0.02,-9.36 0.12,-14.02 -11.13,18.26 -37.32,21.26 -54.81,11.01 -11.45,-6.87 -16.39,-20.63 -16.61,-33.41 -0.24,-22.78 0,-45.59 -0.1,-68.38z"/>
    <path class="fil0" d="M2755.03 1209.97c7.32,-4.69 16.33,-4.3 24.64,-3.65 0.14,7.68 0.14,15.39 0.12,23.09 -8.17,-0.22 -17.22,-1.35 -24.25,3.73 -9.76,6.7 -12.98,19.28 -13.1,30.51 -0.1,16.16 0.02,32.33 -0.02,48.49 -8.24,-0.08 -16.45,-0.08 -24.64,0.04 -0.1,-34.95 0,-69.89 -0.06,-104.82 8.24,0.02 16.47,0.02 24.72,0 -0.04,6.07 -0.06,12.19 -0.06,18.28 2.92,-6.11 6.48,-12.33 12.66,-15.67z"/>
    <path class="fil0" d="M3355.48 1207.36c8.21,0.02 16.45,0 24.7,0.04 -0.12,34.91 0,69.83 -0.06,104.76 -8.24,-0.1 -16.45,-0.1 -24.64,-0.02 0.02,-34.93 0.04,-69.86 0,-104.78z"/>
   </g>
  </g>
 </g>
</svg>
