<?xml version="1.0" encoding="UTF-8"?>
<!DOCTYPE svg PUBLIC "-//W3C//DTD SVG 1.1//EN" "http://www.w3.org/Graphics/SVG/1.1/DTD/svg11.dtd">
<!-- Creator: CorelDRAW 2021.5 -->
<svg xmlns="http://www.w3.org/2000/svg" xml:space="preserve" width="78.3566mm" height="24.2706mm" version="1.1" style="shape-rendering:geometricPrecision; text-rendering:geometricPrecision; image-rendering:optimizeQuality; fill-rule:evenodd; clip-rule:evenodd"
viewBox="0 0 6753.03 2091.72"
 xmlns:xlink="http://www.w3.org/1999/xlink"
 xmlns:xodm="http://www.corel.com/coreldraw/odm/2003">
 <defs>
  <style type="text/css">
   <![CDATA[
    .fil0 {fill:white;fill-rule:nonzero}
   ]]>
  </style>
 </defs>
 <g id="Layer_x0020_1">
  <metadata id="CorelCorpID_0Corel-Layer"/>
  <g id="_2223224796672">
   <g>
    <path class="fil0" d="M1127.24 11.76c121.77,-42.97 258.59,37.24 302.84,153.53 38.89,91.55 21.93,208.35 -53.68,276.19 -63.12,59.41 -162.33,70.64 -239.59,34.04 -106.86,-47.44 -172.91,-170.48 -153.91,-285.76 11.34,-79.44 67.2,-152.5 144.34,-178z"/>
    <path class="fil0" d="M288.73 606.72c113.49,-37.49 257.19,16.45 305.51,128.78 27.04,60.06 -4.34,134.01 -63.75,160.15 -117.18,54.84 -279.76,-2.93 -327.83,-125.22 -27.66,-67.83 18.87,-144.08 86.07,-163.72z"/>
    <path class="fil0" d="M96.83 1307.65c71.02,-26.14 177.49,-2.04 194.83,81.61 9.95,86.07 -86.19,140.9 -162.32,135.93 -57.51,0 -123.94,-36.21 -129.17,-98.82 -3.45,-57.38 45.9,-102.39 96.65,-118.72z"/>
    <path class="fil0" d="M5237.55 1382.12c63.25,-42.59 147.02,-34.81 214.48,-6.38 -7.27,29.46 -14.28,58.91 -20.91,88.49 -41.7,-15.69 -91.3,-33.53 -133.64,-10.84 -27.03,14.67 -26.91,57.38 -1.15,73.45 45.65,31.88 106.09,41.95 142.43,86.97 54.58,65.79 34.05,180.05 -43.48,218.8 -69.49,35.2 -154.04,26.15 -222.89,-5.86 6.63,-30.6 13.26,-60.95 19.89,-91.42 46.16,21.04 100.73,41.82 150.46,20.65 34.56,-15.56 34.69,-68.85 2.94,-87.47 -41.32,-27.67 -93.97,-37.49 -128.79,-74.85 -59.79,-56.99 -47.56,-166.4 20.66,-211.54z"/>
    <g>
     <path class="fil0" d="M2003.37 1366.44c86.83,-7.9 188.33,-28.82 264.58,25.63 66.3,49.86 47.44,163.72 -29.58,192.79 101.37,28.57 112.71,178 28.94,232.84 -78.55,47.81 -176.48,35.83 -263.94,28.68 -0.13,-160.03 0.12,-319.92 0,-479.95zm96.65 72.68l0 0c0,38.26 0,76.51 0,114.89 30.48,-1.79 64.9,3.19 90.54,-17.09 27.8,-20.78 27.54,-70 -2.29,-88.74 -26.66,-16.2 -58.91,-9.7 -88.24,-9.06zm0.13 192.8l0 0c-0.13,46.29 -0.13,92.57 0,138.86 28.82,-0.52 59.67,3.7 86.33,-9.82 43.74,-19.26 47.31,-90.79 5.99,-114.38 -27.54,-17.21 -61.46,-13.26 -92.32,-14.66z"/>
    </g>
    <path class="fil0" d="M2390.23 1360.45c32.52,0 65.16,0 97.8,0 0.14,62.34 0,124.83 0.14,187.18 53.55,0.13 107.11,0 160.66,0.13 0.12,-62.48 0,-124.84 0.12,-187.31 32.4,0 64.78,0 97.17,0 0.12,162.45 0.12,324.76 0,487.21 -32.4,0 -64.78,0 -97.17,0 -0.12,-67.83 -0.12,-135.67 0,-203.63 -53.55,-0.25 -107.24,-0.13 -160.78,-0.13 -0.14,67.96 0,135.93 -0.14,203.76 -32.64,0.13 -65.28,0 -97.8,0 -0.12,-162.45 -0.12,-324.76 0,-487.21z"/>
    <g>
     <path class="fil0" d="M2800.06 1847.54c43.99,-162.33 87.86,-324.77 131.97,-487.09 42.72,0 85.43,-0.13 128.15,0.12 44.25,162.46 89.26,324.64 133.64,487.09 -35.07,0.13 -70.01,0.13 -104.95,0 -11.22,-41.57 -22.31,-83.13 -33.15,-124.83 -41.31,-0.26 -82.62,-0.26 -123.94,-0.13 -10.58,40.3 -18.23,81.35 -30.22,121.26 -32.14,8.93 -68.09,1.53 -101.5,3.58zm191.9 -406.12l0 0c-13.01,66.81 -29.33,132.86 -45.91,198.91 31.75,0 63.63,0 95.38,0 -17.47,-66.05 -34.55,-132.23 -49.47,-198.91z"/>
    </g>
    <path class="fil0" d="M3251.57 1360.45c32.14,0 64.4,0 96.53,0 0.39,71.4 -0.51,142.68 0.64,214.09 43.74,-71.53 84.67,-144.86 130.7,-214.98 39.14,1.15 78.42,1.02 117.7,0.9 -47.44,69.36 -95.26,138.34 -142.56,207.58 49.99,93.22 100.22,186.42 150.34,279.63 -38.89,0.39 -77.66,0.9 -116.42,-2.03 -32.01,-70.01 -68.6,-137.71 -102.27,-206.95 -13.13,16.06 -25.76,32.52 -38,49.09 0,53.3 -0.13,106.6 -0.13,159.9 -32.13,0 -64.39,0 -96.53,0 -0.13,-162.45 -0.13,-324.76 0,-487.21z"/>
    <path class="fil0" d="M3615.87 1360.45c110.56,0 221.1,-0.13 331.66,0 0,30.85 0,61.71 0,92.57 -39.27,0 -78.55,0 -117.82,0.13 0,131.46 0.13,263.06 0,394.51 -32.65,0 -65.28,0 -97.8,0 -0.13,-131.46 0,-263.05 -0.13,-394.64 -38.64,0 -77.26,0 -115.91,0 0,-30.86 0,-61.72 0,-92.57z"/>
    <path class="fil0" d="M3999.43 1847.41c0.64,-162.45 -1.03,-325.03 0.89,-487.47 32.26,0.51 64.65,0.63 97.03,0.51 0.13,162.45 0,324.89 0,487.21 -32.64,0.13 -65.28,0 -97.92,-0.25z"/>
    <path class="fil0" d="M4311.45 1360.45c32.52,0 65.15,0 97.8,0 0,62.34 0,124.83 0,187.18 53.55,0.13 107.24,0.13 160.79,0 0.12,-62.35 0,-124.84 0.12,-187.18 32.27,0 64.78,0 97.17,0 0.12,162.45 0,324.76 0,487.21 -32.4,0 -64.9,0 -97.17,0 -0.12,-67.83 -0.12,-135.8 -0.12,-203.76 -53.55,0 -107.24,0 -160.79,0.13 0,67.83 0,135.8 0,203.63 -32.65,0 -65.28,0 -97.8,0 -0.13,-162.45 -0.13,-324.76 0,-487.21z"/>
    <path class="fil0" d="M4752 1630.64c0.38,-90.28 -1.15,-180.55 0.89,-270.84 32.27,0.65 64.65,0.77 96.91,0.77 0.25,90.15 -0.13,180.43 0,270.58 0.76,38.13 1.53,80.2 25.62,111.95 25.76,34.04 84.68,32.52 108.9,-2.68 20.02,-28.17 21.68,-64.26 22.95,-97.54 0.89,-94.22 -0.51,-188.47 0.64,-282.56 32.13,0.13 64.52,0.13 96.78,0.13 -0.51,98.31 1.02,196.75 -0.65,295.06 -1.65,70.64 -27.29,152.37 -96.78,183.61 -64.14,27.04 -148.3,24.23 -200.2,-26.39 -46.41,-47.82 -54.57,-118.46 -55.08,-182.09z"/>
    <g>
     <path class="fil0" d="M5503.8 1847.66c43.99,-162.45 87.86,-324.89 131.97,-487.21 42.59,0 85.3,0 127.9,0 44.75,162.45 89.38,324.76 133.89,487.21 -35.07,0.13 -70.01,0.13 -104.95,0 -11.22,-41.57 -22.31,-83.26 -33.15,-124.83 -41.19,-0.26 -82.37,-0.26 -123.56,-0.39 -10.58,41.82 -20.66,83.65 -31.37,125.47 -33.53,-0.26 -67.2,-0.26 -100.73,-0.26zm191.77 -407.39l0 0c-12.37,67.32 -29.2,133.63 -45.77,200.06 31.75,0 63.5,0 95.38,0 -17.47,-66.43 -34.94,-132.86 -49.61,-200.06z"/>
    </g>
    <g>
     <path class="fil0" d="M5955.31 1366.56c81.61,-10.07 167.3,-18.87 246.99,7.01 72.68,24.11 122.54,94.23 130.96,169.08 12.49,93.22 -6.64,203.63 -86.97,262.55 -84.67,58.4 -193.82,50.62 -290.98,41.06 0,-159.9 -0.13,-319.8 0,-479.7zm98.19 77.52l0 0c-0.64,107.24 -0.26,214.6 -0.26,321.84 57.51,6.5 126.23,-6.25 155.69,-62.23 31.62,-63.24 35.07,-145.36 -0.51,-207.84 -31.75,-52.79 -99.58,-59.93 -154.92,-51.77z"/>
    </g>
    <g>
     <path class="fil0" d="M6359.4 1847.66c43.99,-162.45 87.73,-324.89 132.1,-487.21 42.58,0 85.17,0 127.76,0 44.63,162.45 89.26,324.76 133.77,487.21 -34.94,0.13 -69.88,0.13 -104.82,0 -11.22,-41.57 -22.31,-83.26 -33.15,-124.83 -41.31,-0.26 -82.49,-0.26 -123.68,-0.26 -10.45,41.32 -20.79,82.5 -30.1,124.07 -33.92,1.28 -67.96,1.4 -101.88,1.02zm191.9 -406.37l0 0c-13.14,66.81 -29.46,132.99 -45.91,199.04 31.75,0 63.5,0 95.38,-0.13 -17.47,-66.05 -34.68,-132.22 -49.47,-198.91z"/>
    </g>
   </g>
   <g>
    <path class="fil0" d="M1609.62 151.77c128.15,286.77 121.64,616.51 45.64,916.29 -104.81,400.25 -333.69,775.78 -668.66,1023.66 278.35,-571.12 150.08,-1317.32 -318.14,-1750.98 154.92,112.72 321.2,216.9 507.61,268.03 96.03,25.12 203.76,35.83 295.83,-9.06 71.91,-34.68 118.33,-107.49 135.16,-183.86 21.3,-86.71 11.86,-176.48 2.55,-264.07z"/>
    <g>
     <path class="fil0" d="M2003.62 398.49c89.13,-13.51 179.8,-19.37 269.94,-13.76 70.13,5.09 146.89,25.24 191.4,84.03 79.82,106.73 44.75,283.2 -82.12,336.75 42.08,23.72 69.5,65.8 83.01,111.31 26.14,86.07 39.91,175.33 67.96,261.02 -54.19,-0.13 -108.51,-0.13 -162.71,0 -24.23,-65.8 -37.1,-134.91 -52.66,-203 -8.67,-34.43 -18.99,-73.45 -51,-93.47 -32.01,-19.25 -71.02,-12.88 -106.6,-14.28 0.13,103.54 0,207.08 0,310.49 -52.41,0.26 -104.95,0.13 -157.35,0.13 -0.12,-259.74 -0.38,-519.48 0.13,-779.23zm157.22 121.27l0 0c0,72.81 0,145.74 0.13,218.55 44.75,-0.77 93.21,5.99 134.39,-16.06 69.88,-35.2 74.59,-152.5 6.25,-191.53 -43.1,-23.33 -94.1,-15.69 -140.77,-10.96z"/>
    </g>
    <path class="fil0" d="M2698.43 425.02c102.77,-69.88 241.25,-59.67 351.03,-11.35 -10.58,48.46 -23.33,96.28 -34.8,144.6 -58.41,-27.54 -124.97,-46.03 -189.36,-31.36 -37.1,8.15 -67.96,44.63 -59.54,83.9 6.76,40.55 47.94,59.92 80.84,76.63 64.65,29.2 135.16,54.7 181.58,111.19 56.1,65.67 62.22,163.08 31.75,241.38 -26.4,68.21 -89.26,117.05 -158.88,135.54 -101.38,27.04 -211.67,13.01 -305.9,-32 9.69,-49.86 21.17,-99.33 31.75,-148.93 71.4,35.7 156.2,63.76 235.38,38.64 52.28,-15.69 70.39,-88.11 34.43,-128.03 -35.2,-37.74 -86.58,-51.64 -131.85,-73.19 -55.47,-25.38 -108.13,-63.63 -136.95,-118.72 -49.48,-96.02 -19.5,-226.84 70.52,-288.3z"/>
    <g>
     <path class="fil0" d="M3667.39 398.62c91.16,-15.17 184.12,-19.38 276.31,-13.51 67.08,4.21 136.95,27.8 181.45,80.46 64.65,77.01 49.73,210.39 -38.39,263.57 -6.89,9.18 -30.6,10.83 -27.54,24.86 28.18,15.81 58.91,29.33 80.07,54.83 71.92,80.59 63.76,215.36 -10.07,292.39 -44.12,48.19 -109.91,67.58 -172.77,76.88 -95.77,12.88 -193.05,8.42 -288.82,-3.44 -0.64,-258.59 0,-517.31 -0.25,-776.04zm157.72 117.57l0 0c-0.38,61.59 -0.25,123.17 -0.25,184.89 48.71,-0.64 103.15,5.23 145.11,-24.86 49.48,-33.79 47.94,-121.65 -7.14,-149.19 -42.58,-21.8 -92.06,-13.64 -137.71,-10.83zm-0.25 312.4l0 0c0,74.47 -0.13,149.06 0.13,223.52 48.96,1.15 102.14,7.27 146.63,-18.1 64.02,-34.43 68.73,-140.01 8.16,-180.05 -45.52,-30.47 -102.9,-24.86 -154.92,-25.37z"/>
    </g>
    <path class="fil0" d="M4297.54 388.43c53.18,-0.13 106.34,-0.13 159.52,0 0.26,101.11 -0.26,202.1 0.26,303.22 87.22,-0.13 174.43,0.13 261.78,-0.13 0,-100.99 -0.13,-202.1 0,-303.09 52.79,-0.13 105.57,-0.13 158.36,0 0.26,263.05 0,526.11 0.13,789.03 -52.41,0.51 -104.81,-0.26 -157.22,0.9 -3.07,-110.3 -0.52,-220.59 -1.28,-330.89 -87.35,-0.39 -174.43,0 -261.65,-0.26 -0.65,110.18 -0.13,220.34 -0.39,330.38 -53.18,0.13 -106.34,0.13 -159.39,0.13 -0.13,-263.19 -0.13,-526.24 -0.13,-789.29z"/>
    <path class="fil0" d="M5016.32 388.55c53.05,-0.38 106.09,-0.12 159.27,-0.38 0.77,263.19 0.38,526.36 0.12,789.68 -53.17,-0.13 -106.34,0 -159.39,-0.39 0.13,-262.93 0,-525.98 0,-788.91z"/>
    <path class="fil0" d="M5313.81 388.43c61.72,-0.13 123.55,-0.13 185.4,-0.13 92.71,186.29 194.71,368.63 263.95,565.51 -17.47,-187.95 -12.88,-376.92 -13.26,-565.38 48.58,-0.13 97.16,-0.13 145.87,0 -0.64,263.31 1.53,526.61 -1.15,789.93 -54.96,-1.15 -110.05,-0.64 -165.01,-0.39 -95.76,-193.43 -195.6,-385.08 -275.93,-585.66 7.27,195.09 6,390.19 6,585.28 -48.71,0.13 -97.29,0.13 -145.87,0.13 -0.13,-263.19 -0.13,-526.24 0,-789.29z"/>
    <g>
     <path class="fil0" d="M5982.99 1177.85c70.52,-263.44 142.81,-526.37 214.6,-789.55 69.36,0 138.85,0 208.22,0 72.94,263.06 145.49,526.23 218.17,789.42 -57.12,0 -114.12,0.13 -171.12,-0.13 -17.98,-67.46 -36.21,-134.78 -53.94,-202.23 -67.2,-0.65 -134.39,-0.26 -201.59,-0.26 -16.7,67.46 -33.53,134.9 -49.86,202.36 -54.96,0.39 -109.79,0.13 -164.49,0.39zm237.3 -336.5l0 0c51.77,0.12 103.54,0.12 155.31,0 -27.8,-107.24 -57.25,-214.23 -79.95,-322.73 -22.18,108.25 -47.81,215.75 -75.36,322.73z"/>
    </g>
    <path class="fil0" d="M679.68 631.84c177.12,170.36 282.44,404.72 327.96,643.81 48.58,264.2 26.52,550.08 -105.2,788.15 4.46,-198.79 -66.43,-393.25 -175.97,-557.23 -161.55,-241.38 -407.65,-425.63 -686.26,-509.15 168.06,34.05 343.13,56.74 513.23,23.59 80.71,-17.21 172.77,-56.36 199.81,-141.79 25.63,-89.52 -25.88,-175.58 -73.57,-247.37z"/>
    <path class="fil0" d="M3220.46 984.03c50.62,-28.95 119.48,4.58 130.19,61.2 21.8,64.02 -20.02,153.79 -96.4,145.11 -98.7,-8.41 -115.4,-162.57 -33.79,-206.31z"/>
    <path class="fil0" d="M249.71 1233.19c168.95,51 313.81,166.4 416.58,308.32 98.82,137.58 161.17,308.06 144.21,479.19 -141.92,-282.44 -480.08,-428.95 -786.35,-396.18 102.39,-26.91 207.84,-58.41 291.49,-126.11 39.27,-31.88 73.7,-82.49 58.66,-135.29 -17.47,-61.21 -74.85,-96.53 -124.59,-129.93z"/>
   </g>
  </g>
 </g>
</svg>
