<?xml version="1.0" encoding="UTF-8"?>
<!DOCTYPE svg PUBLIC "-//W3C//DTD SVG 1.1//EN" "http://www.w3.org/Graphics/SVG/1.1/DTD/svg11.dtd">
<!-- Creator: CorelDRAW 2021.5 -->
<svg xmlns="http://www.w3.org/2000/svg" xml:space="preserve" width="77.335mm" height="53.4762mm" version="1.1" style="shape-rendering:geometricPrecision; text-rendering:geometricPrecision; image-rendering:optimizeQuality; fill-rule:evenodd; clip-rule:evenodd"
viewBox="0 0 784.86 542.72"
 xmlns:xlink="http://www.w3.org/1999/xlink"
 xmlns:xodm="http://www.corel.com/coreldraw/odm/2003">
 <defs>
  <style type="text/css">
   <![CDATA[
    .fil0 {fill:white;fill-rule:nonzero}
   ]]>
  </style>
 </defs>
 <g id="Layer_x0020_1">
  <metadata id="CorelCorpID_0Corel-Layer"/>
  <g id="_2222784714496">
   <path class="fil0" d="M397.52 442.94l-13.59 0c-3.12,-0.24 -5.65,-2.5 -6.09,-5.43l0 -1.76c0.05,-0.26 0,-0.48 0.05,-0.68l-0.05 0 0 -83.88c0,-10.77 -3.59,-19.62 -10.7,-26.32 -7.14,-6.38 -16.64,-9.57 -28.65,-9.57 -9.35,0 -19.32,2.59 -29.84,7.8 -11.27,5.41 -19.54,11.02 -25.06,16.81 -2.63,-8.34 -7.22,-14.5 -13.7,-18.5 -6.52,-4.09 -14.35,-6.11 -23.44,-6.11 -9.58,0 -19.01,2.03 -28.37,6.11 -8.71,3.83 -17.08,9.24 -25.05,16.17l0 -14.83c0.22,-1.78 -1.06,-3.42 -2.95,-3.69l-36.16 0c-1.85,0.27 -3.15,1.91 -2.92,3.69l0 5.58 0.09 0c-0.36,1.74 0.87,3.41 2.69,3.78l14.77 0 0.14 0 3.49 0c2.73,0.67 4.93,2.99 5.09,5.76l0 105.06 0 9.24c-0.35,1.79 0.91,3.44 2.78,3.78l34 0c1.85,-0.33 3.12,-1.99 2.83,-3.78l0 -5.64c0.19,-1.75 -1.07,-3.35 -2.83,-3.6l-14.92 0c-2.93,-0.21 -5.4,-2.27 -6.09,-4.92l0 -2.92 0 -0.03 0 -82.44c7.18,-6.38 15.74,-11.95 25.63,-16.81 9.36,-4.62 18.22,-6.94 26.52,-6.94 8.36,0 14.49,2.17 18.32,6.39 4.03,4.25 6.13,10.15 6.13,17.65l0 100.44c0.35,1.74 2.12,2.91 3.94,2.6l7.96 0c1.79,0.31 3.49,-0.78 3.92,-2.55l0 -99.64c7.88,-7.52 16.43,-13.56 25.61,-18.25 9.3,-4.41 18.26,-6.64 26.82,-6.64 7.8,0 13.73,2.17 17.96,6.39 4.05,4.25 6.14,10.15 6.14,17.65l0 90.02 0 9.91c0.05,1.49 1.14,2.81 2.77,3.1l32.83 0c1.84,-0.33 3.1,-1.99 2.8,-3.78l0 -6.02c0.04,-1.54 -1.2,-2.97 -2.85,-3.22z"/>
   <path class="fil0" d="M464.53 442.99l0 -0.05 -15.8 0c-2.91,-0.24 -5.33,-2.33 -5.96,-5.05l0 -2.64 0 -0.19 0 -112.57c0.11,-1.71 -1.15,-3.17 -2.92,-3.43l-35.31 0c-1.85,0.25 -3.2,1.89 -2.94,3.66l0 5.58c-0.32,1.75 0.93,3.43 2.76,3.8l13.95 0 0.17 0 3.48 0c2.52,0.63 4.57,2.56 4.96,5.13l0 105.7 0.29 0 0 10.65c0.26,1.15 1.24,2.04 2.54,2.38l35.19 0c1.31,-0.34 2.27,-1.29 2.51,-2.48l0 -7.16c0.08,-1.66 -1.14,-3.17 -2.92,-3.34z"/>
   <path class="fil0" d="M628.49 442.99l0 -0.05 -13.89 0c-2.93,-0.24 -5.39,-2.33 -6,-4.99l0 -2.71 0 -0.18 0 -83.9c0,-10.76 -3.52,-19.6 -10.68,-26.3 -7.11,-6.38 -16.39,-9.57 -27.72,-9.57 -9.96,0 -19.65,2.03 -28.95,6.11 -9.42,4.01 -18.13,9.42 -26.21,16.17l0 -14.84 -0.05 0c0.26,-1.76 -1.02,-3.4 -2.93,-3.66l-36.17 0c-1.89,0.25 -3.2,1.89 -2.91,3.66l0 5.58c-0.32,1.75 0.88,3.43 2.81,3.8l14.74 0 0.14 0 3.47 0c2.72,0.63 4.69,2.81 5.02,5.51l0 105.32 0 10.12c0.16,1.36 1.05,2.52 2.56,2.91l34.3 0c1.69,-0.48 2.7,-2.01 2.48,-3.7l0 -5.77c0.14,-1.75 -1.15,-3.36 -2.94,-3.52l0 -0.05 -14.53 0c-3.01,-0.24 -5.47,-2.35 -6,-5.13l0 -2.42c0,-0.13 0,-0.29 0.04,-0.32l-0.04 0 0 -82.44c7.11,-6.38 15.61,-11.94 25.6,-16.81 9.75,-4.61 18.9,-6.93 27.43,-6.93 7.9,0 14.03,2.16 18.22,6.38 4.35,4.08 6.49,9.93 6.49,17.66l0 90.02 0 10.65c0.27,1.15 1.25,2.04 2.5,2.38l33.73 0c1.66,-0.48 2.71,-2.01 2.45,-3.7l0.04 0 0 -5.65c0.23,-1.78 -1.1,-3.47 -2.99,-3.64z"/>
   <path class="fil0" d="M781.87 442.99l0 -0.05 -15.12 0c-3,-0.24 -5.44,-2.41 -5.99,-5.22l0 -2.26c0,0 0,-0.36 0.04,-0.39l-0.04 0 0 -80.95c0,-13.17 -4.58,-22.92 -13.76,-29.25 -9.11,-6.38 -22.46,-9.57 -39.93,-9.57 -3.84,0 -7.93,0.43 -12.28,1.27 -4.41,0.9 -8.46,1.92 -12.04,3.01 -3.19,1.04 -6.72,2.25 -10.52,3.66 -0.66,0.51 -1.05,1.11 -1.22,1.82 0,0.18 -0.09,0.35 -0.09,0.35l2.56 5.99c0.32,0.21 0.57,0.39 0.92,0.55 0.62,0.27 1.44,0.27 2.12,0.33 3.51,-1.08 6.58,-1.95 9.22,-2.68 3.28,-0.84 6.78,-1.73 10.56,-2.42 3.7,-0.78 7.15,-1.18 10.21,-1.18 11.53,0 20.89,2.26 27.99,6.65 6.94,4.25 10.35,11.38 10.35,21.47l0 32.34c-7.68,-4.02 -15.26,-6.92 -22.82,-8.65 -7.73,-1.74 -14.42,-2.61 -20.1,-2.61 -16.27,0 -29.41,4.07 -39.38,12.12 -9.7,7.98 -14.65,17.96 -14.65,30.12 0,10.99 4.32,20.57 12.85,28.66 8.32,7.93 19,11.86 32.01,11.86 7.9,0 16.75,-1.92 26.5,-5.78 9.16,-3.69 17.74,-8.85 25.59,-15.6l0 16.03c-0.1,1.56 0.97,2.9 2.59,3.34l34.81 0c1.54,-0.39 2.62,-1.65 2.62,-3.18l0 -6.42c0.06,-1.66 -1.2,-3.23 -2.99,-3.39zm-37.03 -19.18c-5.85,6.4 -13.35,11.82 -22.58,16.22 -8.67,4.25 -17.31,6.39 -25.84,6.39 -9.91,0 -17.9,-2.82 -23.78,-8.39 -5.7,-5.41 -8.54,-11.89 -8.54,-19.41 0,-9.03 3.49,-16.74 10.66,-22.87 7.15,-6.2 17.06,-9.28 29.87,-9.28 7.13,0 14.26,1.2 21.36,3.52 6.49,2.1 12.84,5.03 18.85,8.65l0 25.17z"/>
   <path class="fil0" d="M21.54 393.26c26.21,10.18 61.3,7.87 88.14,1.01l1.91 -0.54c26.54,-6.37 28.12,-22.76 24.5,-35.75l-0.07 -0.26c-5.03,-22.25 -30.07,-34.96 -30.07,-34.96l-0.19 -0.1c-11.37,-5.97 -24.36,-8.42 -38.98,-7.36 -20.97,1.53 -37.75,9.51 -50.22,24 -12.51,14.44 -17.93,31.9 -16.28,52.39 1.68,20.68 9.95,37.17 24.77,49.44 2.52,2.11 5.12,4.03 7.83,5.74l0.78 0.48c0,0 28.88,20.73 69.62,4.24l0.77 -0.28c9.3,-3.92 22.5,-10.73 22.5,-10.73l0.16 -0.09c0,0 4.57,-2.38 2.9,-5.04l-0.14 -0.25 -3.01 -5.05c-1.04,-1.39 -3.14,-1.66 -4.61,-0.7 -0.44,0.23 -0.79,0.42 -1.12,0.61 -22.04,11.99 -29.37,13.04 -29.37,13.04l-0.82 0.22c-30.45,7.55 -49.75,-7.93 -49.75,-7.93l-0.2 -0.13c-1.55,-1.09 -3.06,-2.26 -4.53,-3.52 -9.79,-8.3 -16.34,-19.14 -19.62,-32.23 -0.77,-3.04 -2.08,-9.78 5.09,-6.23zm21.07 -58.62l0.8 -0.46c6.81,-3.6 14.6,-5.66 23.18,-6.28 6.43,-0.47 12.44,-0.11 18.03,1.08l0.77 0.16c0,0 27.2,5.81 36.8,29.94l0.83 2.49c0.85,2.96 1.18,6.13 0.85,9.46l-0.08 0.53c-0.45,2.35 -1.63,4.54 -4.29,5.72l-3.49 1.72c-1.17,0.54 -2.41,1.07 -3.71,1.56 -30.67,11.66 -91.4,7.52 -95.86,-2.84l-0.35 -1.63c0,0 -1.24,-24.16 26.53,-41.45z"/>
   <path class="fil0" d="M54.99 508.01l15.3 0c4.11,0 7.33,1.12 9.39,3.04 1.49,1.45 2.32,3.25 2.32,5.45l0 0.1c0,4.43 -2.88,6.72 -5.7,7.89 4.26,1.21 7.7,3.56 7.7,8.23l0 0.1c0,5.84 -5.18,9.31 -13.05,9.31l-15.97 0 0 -34.12zm14.63 15.23c4.89,0 8.28,-2.13 8.28,-6.1l0 -0.11c0,-3.36 -2.83,-5.55 -7.97,-5.55l-10.94 0 0 11.76 10.63 0zm1.44 15.42c5.44,0 8.83,-2.28 8.83,-6.09l0 -0.09c0,-3.69 -3.29,-5.84 -9.54,-5.84l-11.36 0 0 12.03 12.08 0z"/>
   <path class="fil0" d="M99.73 525.16l0 -0.08c0,-9.41 7.45,-17.65 18.38,-17.65 10.93,0 18.28,8.13 18.28,17.54 0.05,0.05 0.05,0.05 0,0.11 0,9.4 -7.44,17.64 -18.39,17.64 -10.94,0 -18.27,-8.14 -18.27,-17.56zm32.45 0l0 -0.08c0,-7.75 -5.97,-14.1 -14.18,-14.1 -8.21,0 -14.05,6.23 -14.05,13.99l0 0.11c0,7.74 5.94,14.08 14.16,14.08 8.21,0 14.07,-6.24 14.07,-14z"/>
   <path class="fil0" d="M154.23 508.01l15.45 0c4.41,0 7.96,1.26 10.22,3.41 1.74,1.66 2.77,4.06 2.77,6.74l0 0.1c0,5.65 -4.11,8.96 -9.76,9.94l11.05 13.93 -4.98 0 -10.42 -13.25 -0.11 0 -10.16 0 0 13.25 -4.05 0 0 -34.12zm15.09 17.41c5.39,0 9.24,-2.65 9.24,-7.02l0 -0.1c0,-4.19 -3.39,-6.73 -9.2,-6.73l-11.08 0 0 13.86 11.04 0z"/>
   <polygon class="fil0" points="200.61,508.01 204.4,508.01 227.04,535.37 227.04,508.01 230.99,508.01 230.99,542.13 227.74,542.13 204.57,514.17 204.57,542.13 200.61,542.13 "/>
   <polygon class="fil0" points="284.58,511.57 272.5,511.57 272.5,508.01 300.75,508.01 300.75,511.57 288.68,511.57 288.68,542.13 284.58,542.13 "/>
   <path class="fil0" d="M313.52 525.16l0 -0.08c0,-9.41 7.46,-17.65 18.4,-17.65 10.93,0 18.27,8.13 18.27,17.54 0.05,0.05 0.05,0.05 0,0.11 0,9.4 -7.45,17.64 -18.38,17.64 -10.93,0 -18.29,-8.14 -18.29,-17.56zm32.47 0l0 -0.08c0,-7.75 -5.96,-14.1 -14.19,-14.1 -8.21,0 -14.06,6.23 -14.06,13.99l0 0.11c0,7.74 5.96,14.08 14.17,14.08 8.21,0 14.07,-6.24 14.07,-14z"/>
   <path class="fil0" d="M392.67 508.01l15.31 0c4.1,0 7.34,1.12 9.38,3.04 1.49,1.45 2.32,3.25 2.32,5.45l0 0.1c0,4.43 -2.89,6.72 -5.7,7.89 4.26,1.21 7.7,3.56 7.7,8.23l0 0.1c0,5.84 -5.19,9.31 -13.05,9.31l-15.96 0 0 -34.12zm14.63 15.23c4.9,0 8.27,-2.13 8.27,-6.1l0 -0.11c0,-3.36 -2.83,-5.55 -7.96,-5.55l-10.94 0 0 11.76 10.63 0zm1.45 15.42c5.44,0 8.81,-2.28 8.81,-6.09l0 -0.09c0,-3.69 -3.28,-5.84 -9.53,-5.84l-11.36 0 0 12.03 12.08 0z"/>
   <polygon class="fil0" points="439.01,508.01 465,508.01 465,511.52 443.07,511.52 443.07,523.17 462.67,523.17 462.67,526.67 443.07,526.67 443.07,538.64 465.24,538.64 465.24,542.13 439.01,542.13 "/>
   <polygon class="fil0" points="507.32,508.01 511.38,508.01 511.38,538.57 531.61,538.57 531.61,542.13 507.32,542.13 "/>
   <path class="fil0" d="M544.71 525.16l0 -0.08c0,-9.41 7.45,-17.65 18.39,-17.65 10.92,0 18.28,8.13 18.28,17.54 0.04,0.05 0.04,0.05 0,0.11 0,9.4 -7.46,17.64 -18.39,17.64 -10.93,0 -18.28,-8.14 -18.28,-17.56zm32.45 0l0 -0.08c0,-7.75 -5.95,-14.1 -14.17,-14.1 -8.21,0 -14.06,6.23 -14.06,13.99l0 0.11c0,7.74 5.95,14.08 14.17,14.08 8.21,0 14.06,-6.24 14.06,-14z"/>
   <polygon class="fil0" points="594.01,508.01 598.54,508.01 611.31,537.41 624.15,508.01 628.52,508.01 613.07,542.38 609.47,542.38 "/>
   <polygon class="fil0" points="644.87,508.01 670.85,508.01 670.85,511.52 648.92,511.52 648.92,523.17 668.52,523.17 668.52,526.67 648.92,526.67 648.92,538.64 671.1,538.64 671.1,542.13 644.87,542.13 "/>
   <path class="fil0" d="M688.52 508.01l12.47 0c11.29,0 19.1,7.37 19.1,16.96l0 0.11c0,9.6 -7.81,17.05 -19.1,17.05l-12.47 0 0 -34.12zm12.47 30.57c9.09,0 14.9,-5.85 14.9,-13.4l0 -0.09c0,-7.56 -5.81,-13.52 -14.9,-13.52l-8.42 0 0 27.01 8.42 0z"/>
   <path class="fil0" d="M519.46 71.68c0,-0.36 0,-0.67 -0.01,-1.01 -0.1,-4.32 -1.3,-8.51 -3.29,-12.61 -1.69,-3.48 -5.7,-8.76 -8.25,-11.54 -1.81,-1.98 -27.93,-35.33 -27.93,-35.33 0,0 -0.8,-0.74 -1.12,-1.06 -0.24,-0.22 -0.49,-0.46 -0.75,-0.68 -3.28,-3 -7.19,-5.38 -11.65,-6.95 -3.59,-1.26 -7.28,-1.87 -10.95,-1.92l-0.04 -0.03c0,0 -15.97,-0.69 -20.67,-0.54 -16.59,0.44 -26.72,-1.42 -36.34,6.85 -13.47,11.59 -20.84,18.3 -23.53,20.91l-11.91 11.2 -11.93 -11.2c-2.66,-2.61 -10.04,-9.33 -23.52,-20.91 -9.61,-8.27 -19.73,-6.4 -36.33,-6.85 -4.72,-0.15 -20.68,0.54 -20.68,0.54l-0.04 0.03c-3.67,0.05 -7.34,0.66 -10.95,1.92 -4.45,1.56 -8.36,3.95 -11.64,6.95 -0.25,0.22 -0.51,0.46 -0.75,0.68 -0.32,0.32 -1.12,1.06 -1.12,1.06 0,0 -26.1,33.35 -27.93,35.33 -2.55,2.78 -6.56,8.06 -8.25,11.54 -1.99,4.1 -3.2,8.29 -3.29,12.61 -0.01,0.33 -0.01,0.65 -0.01,1.01l0.09 36.18c0.01,3.68 -0.46,8.15 0.93,11.75 1.41,3.64 2.64,6.1 5.19,8.91l0.01 0.01c0.42,0.46 0.82,0.93 1.26,1.37 0.22,0.22 0.44,0.43 0.67,0.63l121.15 117.93c4.15,3.95 6.93,6.13 10.76,8.01 0.24,0.13 0.48,0.24 0.71,0.35 2.97,1.35 12.1,2.21 15.9,2.41l0 0.01 0.05 0 0.04 0 0 -0.01c3.78,-0.21 12.38,-1.06 15.36,-2.41 0.23,-0.11 0.47,-0.22 0.71,-0.35 3.83,-1.88 6.62,-4.07 10.76,-8.01l121.16 -117.93c0.21,-0.2 0.44,-0.42 0.65,-0.63 0.44,-0.44 0.84,-0.91 1.26,-1.37l0.01 -0.01c2.55,-2.82 3.78,-5.28 5.2,-8.91 1.39,-3.6 0.92,-8.07 0.92,-11.75l0.08 -36.18zm-156.61 64.09l-10.27 -9.75 10.25 -9.73 10.27 9.74 -10.25 9.74zm0 21.16l18.19 17.29 -18.19 17.27 -18.21 -17.27 18.21 -17.29zm0 -64.85l-10.27 -9.75 10.37 -9.83 10.25 9.75 -10.34 9.83zm139.72 15.78c0,1.89 -0.35,3.72 -1.03,5.46 -0.66,1.69 -1.68,3.31 -3.03,4.8l-0.71 0.81c-1.04,0.98 -85.37,84.32 -120.72,119.47 -1.56,1.54 -3.79,2.98 -5.37,3.58 -1.47,0.54 -5.24,1.06 -8.4,1.27 -3.16,-0.21 -7.48,-0.73 -8.95,-1.27 -1.59,-0.6 -3.83,-2.04 -5.37,-3.58 -35.35,-35.15 -119.69,-118.49 -120.72,-119.47l-0.72 -0.81c-1.35,-1.49 -2.37,-3.12 -3.03,-4.8 -0.68,-1.74 -1.02,-3.58 -1.02,-5.46l-0.07 -36.83c0.03,-2.25 0.55,-4.4 1.52,-6.4 0.83,-1.69 2.11,-3.31 3.33,-4.79 1.9,-2.34 29.1,-36.82 29.1,-36.82l0.4 -0.37c0,0 1.01,-0.94 1.41,-1.32l0.4 -0.38c1.7,-1.54 3.77,-2.45 5.81,-3.47 1.67,-0.81 2.04,-0.83 2.76,-0.97 5.17,-0.95 21.06,-0.54 21.06,-0.54 9.23,0.22 22.85,-0.88 26.34,2.26 16.85,15.19 27.24,24.25 36.81,33.21l3.93 3.15 -10.56 10.02 -5.93 5.62 -19.67 -18.68c-4.89,-4.66 -11.33,-7.33 -18.12,-7.52 -0.28,-0.02 -0.57,-0.02 -0.84,-0.02 -6.6,0 -12.99,2.48 -17.54,6.82 -4.64,4.41 -7.19,10.32 -7.19,16.65l0 0.8c0.22,6.44 3.04,12.56 7.95,17.23l19.67 18.65 -19.68 18.7c-4.91,4.64 -7.73,10.74 -7.95,17.19l0 0.82c0,6.33 2.55,12.26 7.18,16.66 4.56,4.34 10.99,6.83 17.61,6.83 0.26,0 0.52,0 0.79,-0.01 6.78,-0.19 13.22,-2.89 18.15,-7.55l19.66 -18.66 9.32 8.86 -22.64 21.48c-3.33,3.17 -3.33,8.3 0,11.48l30.28 28.74c1.67,1.58 3.86,2.36 6.05,2.36 2.18,0 4.36,-0.79 6.04,-2.36l30.28 -28.74c3.33,-3.18 3.33,-8.31 0,-11.48l-22.65 -21.48 9.32 -8.86 19.68 18.67c4.91,4.66 11.35,7.35 18.13,7.54 0.27,0 0.81,0.01 0.81,0.01 6.6,0 13.02,-2.49 17.61,-6.83 4.62,-4.41 7.16,-10.33 7.16,-16.66 0,-0.28 0,-0.54 -0.01,-0.81 -0.22,-6.46 -3.04,-12.57 -7.94,-17.21l-19.66 -18.68 19.66 -18.67c4.9,-4.66 7.73,-10.75 7.94,-17.19 0.01,-0.27 0.01,-0.56 0.01,-0.83 0,-6.33 -2.54,-12.25 -7.19,-16.65 -4.56,-4.34 -10.96,-6.82 -17.54,-6.82 -0.27,0 -0.56,0 -0.84,0.02 -6.8,0.19 -13.23,2.86 -18.14,7.53l-19.58 18.59 -10.25 -9.73 0.03 -0.04 -5.98 -5.75 3.94 -3.18c9.59,-8.96 19.97,-18.02 36.82,-33.21 3.5,-3.13 17.11,-2.04 26.34,-2.26 0,0 15.89,-0.41 21.06,0.54 0.72,0.14 1.09,0.16 2.75,0.97 2.06,1.03 4.12,1.94 5.82,3.47l0.4 0.38c0.39,0.38 1.41,1.32 1.41,1.32l0.38 0.37c0,0 27.2,34.47 29.11,36.82 1.22,1.48 2.49,3.1 3.33,4.79 0.97,2 1.49,4.15 1.53,6.4l-0.07 36.83zm-152.49 -3.69l-10.27 9.75 -10.26 -9.74 10.28 -9.75 10.25 9.73zm-33.26 12.1l10.25 9.76 -19.66 18.67c-1.64,1.56 -3.77,2.45 -5.95,2.53l-0.25 0c-1.33,0 -3.24,-0.31 -4.82,-1.8 -1.57,-1.52 -1.91,-3.36 -1.91,-4.6l-0.44 0 0.45 -0.22c0.06,-2.09 1.01,-4.09 2.67,-5.67l19.67 -18.67zm0 -24.19l-19.68 -18.69c-1.65,-1.56 -2.6,-3.57 -2.65,-5.64l-0.01 -0.23c0,-1.26 0.34,-3.08 1.91,-4.58 1.58,-1.5 3.49,-1.82 4.82,-1.82l0.25 0c2.18,0.06 4.3,0.97 5.95,2.54l19.66 18.67 -10.25 9.75zm58.77 12.09l10.35 -9.83 10.26 9.75 -10.34 9.83 -10.27 -9.75zm33.27 12.1l19.68 18.68c1.63,1.56 2.58,3.57 2.65,5.64l0 0.25c0,1.26 -0.33,3.08 -1.89,4.58 -1.59,1.51 -3.51,1.82 -4.84,1.82l-0.24 0c-2.2,-0.08 -4.31,-0.99 -5.98,-2.53l-19.66 -18.67 10.26 -9.76zm-10.18 -34.02l19.59 -18.61c1.65,-1.55 3.76,-2.46 5.94,-2.52l0.25 0c1.93,0 3.56,0.6 4.81,1.8 1.59,1.51 1.92,3.33 1.92,4.6l0 0.22c-0.07,2.08 -1.02,4.11 -2.68,5.67l-19.57 18.58 -10.27 -9.75z"/>
  </g>
 </g>
</svg>
